M48
; DRILL file {KiCad 9.0.0} date 2025-07-27T21:57:38+0200
; FORMAT={-:-/ absolute / inch / decimal}
; #@! TF.CreationDate,2025-07-27T21:57:38+02:00
; #@! TF.GenerationSoftware,Kicad,Pcbnew,9.0.0
; #@! TF.FileFunction,NonPlated,1,2,NPTH
FMAT,2
INCH
; #@! TA.AperFunction,NonPlated,NPTH,ComponentDrill
T1C0.0512
; #@! TA.AperFunction,NonPlated,NPTH,ComponentDrill
T2C0.0670
; #@! TA.AperFunction,NonPlated,NPTH,ComponentDrill
T3C0.1181
; #@! TA.AperFunction,NonPlated,NPTH,ComponentDrill
T4C0.1570
%
G90
G05
T1
X12.7008Y-5.9532
X12.7008Y-6.2288
X12.7756Y-5.9532
X12.7756Y-6.2288
T2
X7.3482Y-6.263
X7.3482Y-7.013
X7.3482Y-7.763
X7.3482Y-8.513
X7.3482Y-9.263
X7.7482Y-6.263
X7.7482Y-7.013
X7.7482Y-7.763
X7.7482Y-8.513
X7.7482Y-9.263
X8.0982Y-6.263
X8.0982Y-7.013
X8.0982Y-7.763
X8.0982Y-8.513
X8.0982Y-9.263
X8.4982Y-6.263
X8.4982Y-7.013
X8.4982Y-7.763
X8.4982Y-8.513
X8.4982Y-9.263
X8.8482Y-6.0755
X8.8482Y-6.8255
X8.8482Y-7.5755
X8.8482Y-8.3255
X9.0357Y-9.263
X9.2482Y-6.0755
X9.2482Y-6.8255
X9.2482Y-7.5755
X9.2482Y-8.3255
X9.4357Y-9.263
X9.5982Y-5.9818
X9.5982Y-6.7318
X9.5982Y-7.4818
X9.5982Y-8.2318
X9.8787Y-9.263
X9.9982Y-5.9818
X9.9982Y-6.7318
X9.9982Y-7.4818
X9.9982Y-8.2318
X10.2787Y-9.263
X10.3482Y-6.0755
X10.3482Y-6.8255
X10.3482Y-7.5755
X10.3482Y-8.3255
X10.7232Y-9.263
X10.7482Y-6.0755
X10.7482Y-6.8255
X10.7482Y-7.5755
X10.7482Y-8.3255
X11.0982Y-6.1693
X11.0982Y-6.9193
X11.0982Y-7.6693
X11.0982Y-8.4193
X11.1232Y-9.263
X11.4982Y-6.1693
X11.4982Y-6.9193
X11.4982Y-7.6693
X11.4982Y-8.4193
X12.0158Y-9.2488
X12.3622Y-9.4488
X12.3859Y-8.6316
X12.6806Y-9.6457
X12.7323Y-8.8316
X13.027Y-9.8457
X13.0394Y-9.0126
X13.3858Y-9.2126
T3
X7.3982Y-6.363
X7.3982Y-7.113
X7.3982Y-7.863
X7.3982Y-8.613
X7.3982Y-9.363
X7.4439Y-6.463
X7.4439Y-7.213
X7.4439Y-7.963
X7.4439Y-8.713
X7.4439Y-9.463
X7.6482Y-6.463
X7.6482Y-7.213
X7.6482Y-7.963
X7.6482Y-8.713
X7.6482Y-9.463
X7.6939Y-6.363
X7.6939Y-7.113
X7.6939Y-7.863
X7.6939Y-8.613
X7.6939Y-9.363
X8.1482Y-6.363
X8.1482Y-7.113
X8.1482Y-7.863
X8.1482Y-8.613
X8.1482Y-9.363
X8.1939Y-6.463
X8.1939Y-7.213
X8.1939Y-7.963
X8.1939Y-8.713
X8.1939Y-9.463
X8.3982Y-6.463
X8.3982Y-7.213
X8.3982Y-7.963
X8.3982Y-8.713
X8.3982Y-9.463
X8.4439Y-6.363
X8.4439Y-7.113
X8.4439Y-7.863
X8.4439Y-8.613
X8.4439Y-9.363
X8.8982Y-6.1755
X8.8982Y-6.9255
X8.8982Y-7.6755
X8.8982Y-8.4255
X8.9439Y-6.2755
X8.9439Y-7.0255
X8.9439Y-7.7755
X8.9439Y-8.5255
X9.0857Y-9.363
X9.1314Y-9.463
X9.1482Y-6.2755
X9.1482Y-7.0255
X9.1482Y-7.7755
X9.1482Y-8.5255
X9.1939Y-6.1755
X9.1939Y-6.9255
X9.1939Y-7.6755
X9.1939Y-8.4255
X9.3357Y-9.463
X9.3814Y-9.363
X9.6482Y-6.0818
X9.6482Y-6.8318
X9.6482Y-7.5818
X9.6482Y-8.3318
X9.6939Y-6.1818
X9.6939Y-6.9318
X9.6939Y-7.6818
X9.6939Y-8.4318
X9.8982Y-6.1818
X9.8982Y-6.9318
X9.8982Y-7.6818
X9.8982Y-8.4318
X9.9287Y-9.363
X9.9439Y-6.0818
X9.9439Y-6.8318
X9.9439Y-7.5818
X9.9439Y-8.3318
X9.9744Y-9.463
X10.1787Y-9.463
X10.2244Y-9.363
X10.3982Y-6.1755
X10.3982Y-6.9255
X10.3982Y-7.6755
X10.3982Y-8.4255
X10.4439Y-6.2755
X10.4439Y-7.0255
X10.4439Y-7.7755
X10.4439Y-8.5255
X10.6482Y-6.2755
X10.6482Y-7.0255
X10.6482Y-7.7755
X10.6482Y-8.5255
X10.6939Y-6.1755
X10.6939Y-6.9255
X10.6939Y-7.6755
X10.6939Y-8.4255
X10.7732Y-9.363
X10.8189Y-9.463
X11.0232Y-9.463
X11.0689Y-9.363
X11.1482Y-7.0193
X11.1482Y-7.7693
X11.1482Y-8.5193
X11.1526Y-6.2693
X11.1939Y-7.1193
X11.1939Y-7.8693
X11.1939Y-8.6193
X11.1982Y-6.3693
X11.3982Y-7.1193
X11.3982Y-7.8693
X11.3982Y-8.6193
X11.4026Y-6.3693
X11.4439Y-7.0193
X11.4439Y-7.7693
X11.4439Y-8.5193
X11.4482Y-6.2693
X11.9986Y-9.4699
X12.0091Y-9.3604
X12.1756Y-9.572
X12.2652Y-9.5083
X12.3687Y-8.8526
X12.3792Y-8.7432
X12.5457Y-8.9548
X12.6352Y-8.891
X12.6634Y-9.8667
X12.6739Y-9.7573
X12.8404Y-9.9689
X12.9299Y-9.9051
X13.0223Y-9.2336
X13.0327Y-9.1242
X13.1992Y-9.3358
X13.2888Y-9.272
T4
X7.5482Y-6.263
X7.5482Y-7.013
X7.5482Y-7.763
X7.5482Y-8.513
X7.5482Y-9.263
X8.2982Y-6.263
X8.2982Y-7.013
X8.2982Y-7.763
X8.2982Y-8.513
X8.2982Y-9.263
X9.0482Y-6.0755
X9.0482Y-6.8255
X9.0482Y-7.5755
X9.0482Y-8.3255
X9.2357Y-9.263
X9.7982Y-5.9818
X9.7982Y-6.7318
X9.7982Y-7.4818
X9.7982Y-8.2318
X10.0787Y-9.263
X10.5482Y-6.0755
X10.5482Y-6.8255
X10.5482Y-7.5755
X10.5482Y-8.3255
X10.9232Y-9.263
X11.2982Y-6.1693
X11.2982Y-6.9193
X11.2982Y-7.6693
X11.2982Y-8.4193
X12.189Y-9.3488
X12.5591Y-8.7316
X12.8538Y-9.7457
X13.2126Y-9.1126
M30
