%TF.GenerationSoftware,KiCad,Pcbnew,9.0.0*%
%TF.CreationDate,2025-07-27T21:57:38+02:00*%
%TF.ProjectId,keyboard,6b657962-6f61-4726-942e-6b696361645f,rev?*%
%TF.SameCoordinates,Original*%
%TF.FileFunction,Other,Comment*%
%FSLAX46Y46*%
G04 Gerber Fmt 4.6, Leading zero omitted, Abs format (unit mm)*
G04 Created by KiCad (PCBNEW 9.0.0) date 2025-07-27 21:57:38*
%MOMM*%
%LPD*%
G01*
G04 APERTURE LIST*
%ADD10C,0.120000*%
%ADD11C,0.150000*%
G04 APERTURE END LIST*
D10*
%TO.C,D22*%
X247400000Y-205400000D02*
X250600000Y-205400000D01*
X247400000Y-202600000D02*
X247400000Y-205400000D01*
X250600000Y-205400000D02*
X250600000Y-202600000D01*
X250600000Y-202600000D02*
X247400000Y-202600000D01*
%TO.C,D23*%
X266150000Y-207900000D02*
X269350000Y-207900000D01*
X266150000Y-205100000D02*
X266150000Y-207900000D01*
X269350000Y-207900000D02*
X269350000Y-205100000D01*
X269350000Y-205100000D02*
X266150000Y-205100000D01*
%TO.C,D25*%
X319414359Y-217662436D02*
X322185641Y-219262436D01*
X320814359Y-215237564D02*
X319414359Y-217662436D01*
X322185641Y-219262436D02*
X323585641Y-216837564D01*
X323585641Y-216837564D02*
X320814359Y-215237564D01*
%TO.C,D2*%
X266400000Y-150650000D02*
X269600000Y-150650000D01*
X266400000Y-147850000D02*
X266400000Y-150650000D01*
X269600000Y-150650000D02*
X269600000Y-147850000D01*
X269600000Y-147850000D02*
X266400000Y-147850000D01*
%TO.C,D27*%
X327164359Y-243412436D02*
X329935641Y-245012436D01*
X328564359Y-240987564D02*
X327164359Y-243412436D01*
X329935641Y-245012436D02*
X331335641Y-242587564D01*
X331335641Y-242587564D02*
X328564359Y-240987564D01*
%TO.C,D33*%
X190150000Y-231650000D02*
X193350000Y-231650000D01*
X190150000Y-228850000D02*
X190150000Y-231650000D01*
X193350000Y-231650000D02*
X193350000Y-228850000D01*
X193350000Y-228850000D02*
X190150000Y-228850000D01*
%TO.C,D28*%
X310164359Y-233662436D02*
X312935641Y-235262436D01*
X311564359Y-231237564D02*
X310164359Y-233662436D01*
X312935641Y-235262436D02*
X314335641Y-232837564D01*
X314335641Y-232837564D02*
X311564359Y-231237564D01*
%TO.C,D32*%
X209150000Y-231650000D02*
X212350000Y-231650000D01*
X209150000Y-228850000D02*
X209150000Y-231650000D01*
X212350000Y-231650000D02*
X212350000Y-228850000D01*
X212350000Y-228850000D02*
X209150000Y-228850000D01*
%TO.C,D31*%
X232900000Y-231650000D02*
X236100000Y-231650000D01*
X232900000Y-228850000D02*
X232900000Y-231650000D01*
X236100000Y-231650000D02*
X236100000Y-228850000D01*
X236100000Y-228850000D02*
X232900000Y-228850000D01*
%TO.C,D3*%
X247400000Y-148400000D02*
X250600000Y-148400000D01*
X247400000Y-145600000D02*
X247400000Y-148400000D01*
X250600000Y-148400000D02*
X250600000Y-145600000D01*
X250600000Y-145600000D02*
X247400000Y-145600000D01*
%TO.C,D12*%
X285400000Y-172150000D02*
X288600000Y-172150000D01*
X285400000Y-169350000D02*
X285400000Y-172150000D01*
X288600000Y-172150000D02*
X288600000Y-169350000D01*
X288600000Y-169350000D02*
X285400000Y-169350000D01*
%TO.C,D15*%
X247400000Y-186400000D02*
X250600000Y-186400000D01*
X247400000Y-183600000D02*
X247400000Y-186400000D01*
X250600000Y-186400000D02*
X250600000Y-183600000D01*
X250600000Y-183600000D02*
X247400000Y-183600000D01*
%TO.C,D1*%
X288600000Y-153150000D02*
X285400000Y-153150000D01*
X288600000Y-150350000D02*
X288600000Y-153150000D01*
X285400000Y-153150000D02*
X285400000Y-150350000D01*
X285400000Y-150350000D02*
X288600000Y-150350000D01*
%TO.C,D16*%
X228150000Y-188900000D02*
X231350000Y-188900000D01*
X228150000Y-186100000D02*
X228150000Y-188900000D01*
X231350000Y-188900000D02*
X231350000Y-186100000D01*
X231350000Y-186100000D02*
X228150000Y-186100000D01*
%TO.C,D18*%
X189900000Y-193650000D02*
X193100000Y-193650000D01*
X189900000Y-190850000D02*
X189900000Y-193650000D01*
X193100000Y-193650000D02*
X193100000Y-190850000D01*
X193100000Y-190850000D02*
X189900000Y-190850000D01*
%TO.C,D29*%
X276075000Y-231650000D02*
X279275000Y-231650000D01*
X276075000Y-228850000D02*
X276075000Y-231650000D01*
X279275000Y-231650000D02*
X279275000Y-228850000D01*
X279275000Y-228850000D02*
X276075000Y-228850000D01*
%TO.C,D13*%
X285400000Y-191150000D02*
X288600000Y-191150000D01*
X285400000Y-188350000D02*
X285400000Y-191150000D01*
X288600000Y-191150000D02*
X288600000Y-188350000D01*
X288600000Y-188350000D02*
X285400000Y-188350000D01*
%TO.C,D6*%
X190400000Y-155400000D02*
X193600000Y-155400000D01*
X190400000Y-152600000D02*
X190400000Y-155400000D01*
X193600000Y-155400000D02*
X193600000Y-152600000D01*
X193600000Y-152600000D02*
X190400000Y-152600000D01*
%TO.C,D21*%
X228150000Y-207900000D02*
X231350000Y-207900000D01*
X228150000Y-205100000D02*
X228150000Y-207900000D01*
X231350000Y-207900000D02*
X231350000Y-205100000D01*
X231350000Y-205100000D02*
X228150000Y-205100000D01*
%TO.C,D4*%
X228400000Y-150650000D02*
X231600000Y-150650000D01*
X228400000Y-147850000D02*
X228400000Y-150650000D01*
X231600000Y-150650000D02*
X231600000Y-147850000D01*
X231600000Y-147850000D02*
X228400000Y-147850000D01*
%TO.C,D26*%
X336164359Y-227412436D02*
X338935641Y-229012436D01*
X337564359Y-224987564D02*
X336164359Y-227412436D01*
X338935641Y-229012436D02*
X340335641Y-226587564D01*
X340335641Y-226587564D02*
X337564359Y-224987564D01*
%TO.C,D20*%
X209150000Y-212650000D02*
X212350000Y-212650000D01*
X209150000Y-209850000D02*
X209150000Y-212650000D01*
X212350000Y-212650000D02*
X212350000Y-209850000D01*
X212350000Y-209850000D02*
X209150000Y-209850000D01*
%TO.C,D17*%
X209150000Y-193650000D02*
X212350000Y-193650000D01*
X209150000Y-190850000D02*
X209150000Y-193650000D01*
X212350000Y-193650000D02*
X212350000Y-190850000D01*
X212350000Y-190850000D02*
X209150000Y-190850000D01*
%TO.C,D5*%
X209400000Y-155400000D02*
X212600000Y-155400000D01*
X209400000Y-152600000D02*
X209400000Y-155400000D01*
X212600000Y-155400000D02*
X212600000Y-152600000D01*
X212600000Y-152600000D02*
X209400000Y-152600000D01*
%TO.C,D11*%
X266400000Y-169650000D02*
X269600000Y-169650000D01*
X266400000Y-166850000D02*
X266400000Y-169650000D01*
X269600000Y-169650000D02*
X269600000Y-166850000D01*
X269600000Y-166850000D02*
X266400000Y-166850000D01*
%TO.C,D30*%
X254400000Y-231650000D02*
X257600000Y-231650000D01*
X254400000Y-228850000D02*
X254400000Y-231650000D01*
X257600000Y-231650000D02*
X257600000Y-228850000D01*
X257600000Y-228850000D02*
X254400000Y-228850000D01*
%TO.C,D8*%
X209400000Y-174400000D02*
X212600000Y-174400000D01*
X209400000Y-171600000D02*
X209400000Y-174400000D01*
X212600000Y-174400000D02*
X212600000Y-171600000D01*
X212600000Y-171600000D02*
X209400000Y-171600000D01*
%TO.C,D7*%
X190150000Y-174400000D02*
X193350000Y-174400000D01*
X190150000Y-171600000D02*
X190150000Y-174400000D01*
X193350000Y-174400000D02*
X193350000Y-171600000D01*
X193350000Y-171600000D02*
X190150000Y-171600000D01*
%TO.C,D10*%
X247400000Y-167400000D02*
X250600000Y-167400000D01*
X247400000Y-164600000D02*
X247400000Y-167400000D01*
X250600000Y-167400000D02*
X250600000Y-164600000D01*
X250600000Y-164600000D02*
X247400000Y-164600000D01*
%TO.C,D14*%
X266400000Y-188900000D02*
X269600000Y-188900000D01*
X266400000Y-186100000D02*
X266400000Y-188900000D01*
X269600000Y-188900000D02*
X269600000Y-186100000D01*
X269600000Y-186100000D02*
X266400000Y-186100000D01*
%TO.C,D9*%
X228400000Y-169650000D02*
X231600000Y-169650000D01*
X228400000Y-166850000D02*
X228400000Y-169650000D01*
X231600000Y-169650000D02*
X231600000Y-166850000D01*
X231600000Y-166850000D02*
X228400000Y-166850000D01*
%TO.C,D24*%
X285400000Y-210150000D02*
X288600000Y-210150000D01*
X285400000Y-207350000D02*
X285400000Y-210150000D01*
X288600000Y-210150000D02*
X288600000Y-207350000D01*
X288600000Y-207350000D02*
X285400000Y-207350000D01*
%TO.C,D19*%
X190075000Y-212650000D02*
X193275000Y-212650000D01*
X190075000Y-209850000D02*
X190075000Y-212650000D01*
X193275000Y-212650000D02*
X193275000Y-209850000D01*
X193275000Y-209850000D02*
X190075000Y-209850000D01*
D11*
%TO.C,H11*%
X292650000Y-245000000D02*
G75*
G02*
X288850000Y-245000000I-1900000J0D01*
G01*
X288850000Y-245000000D02*
G75*
G02*
X292650000Y-245000000I1900000J0D01*
G01*
%TO.C,H10*%
X315150000Y-205650000D02*
G75*
G02*
X311350000Y-205650000I-1900000J0D01*
G01*
X311350000Y-205650000D02*
G75*
G02*
X315150000Y-205650000I1900000J0D01*
G01*
%TO.C,H9*%
X315150000Y-184700000D02*
G75*
G02*
X311350000Y-184700000I-1900000J0D01*
G01*
X311350000Y-184700000D02*
G75*
G02*
X315150000Y-184700000I1900000J0D01*
G01*
%TO.C,H8*%
X300400000Y-160750000D02*
G75*
G02*
X296600000Y-160750000I-1900000J0D01*
G01*
X296600000Y-160750000D02*
G75*
G02*
X300400000Y-160750000I1900000J0D01*
G01*
%TO.C,H7*%
X331150000Y-259500000D02*
G75*
G02*
X327350000Y-259500000I-1900000J0D01*
G01*
X327350000Y-259500000D02*
G75*
G02*
X331150000Y-259500000I1900000J0D01*
G01*
%TO.C,H6*%
X183400000Y-149500000D02*
G75*
G02*
X179600000Y-149500000I-1900000J0D01*
G01*
X179600000Y-149500000D02*
G75*
G02*
X183400000Y-149500000I1900000J0D01*
G01*
%TO.C,H5*%
X349900000Y-226500000D02*
G75*
G02*
X346100000Y-226500000I-1900000J0D01*
G01*
X346100000Y-226500000D02*
G75*
G02*
X349900000Y-226500000I1900000J0D01*
G01*
%TO.C,H4*%
X183400000Y-245000000D02*
G75*
G02*
X179600000Y-245000000I-1900000J0D01*
G01*
X179600000Y-245000000D02*
G75*
G02*
X183400000Y-245000000I1900000J0D01*
G01*
%TO.C,H3*%
X250650000Y-222500000D02*
G75*
G02*
X246850000Y-222500000I-1900000J0D01*
G01*
X246850000Y-222500000D02*
G75*
G02*
X250650000Y-222500000I1900000J0D01*
G01*
%TO.C,H2*%
X325650000Y-174750000D02*
G75*
G02*
X321850000Y-174750000I-1900000J0D01*
G01*
X321850000Y-174750000D02*
G75*
G02*
X325650000Y-174750000I1900000J0D01*
G01*
%TO.C,H1*%
X250900000Y-139250000D02*
G75*
G02*
X247100000Y-139250000I-1900000J0D01*
G01*
X247100000Y-139250000D02*
G75*
G02*
X250900000Y-139250000I1900000J0D01*
G01*
%TD*%
M02*
