%TF.GenerationSoftware,KiCad,Pcbnew,9.0.0*%
%TF.CreationDate,2025-07-27T21:57:38+02:00*%
%TF.ProjectId,keyboard,6b657962-6f61-4726-942e-6b696361645f,rev?*%
%TF.SameCoordinates,Original*%
%TF.FileFunction,Soldermask,Bot*%
%TF.FilePolarity,Negative*%
%FSLAX46Y46*%
G04 Gerber Fmt 4.6, Leading zero omitted, Abs format (unit mm)*
G04 Created by KiCad (PCBNEW 9.0.0) date 2025-07-27 21:57:38*
%MOMM*%
%LPD*%
G01*
G04 APERTURE LIST*
G04 Aperture macros list*
%AMRoundRect*
0 Rectangle with rounded corners*
0 $1 Rounding radius*
0 $2 $3 $4 $5 $6 $7 $8 $9 X,Y pos of 4 corners*
0 Add a 4 corners polygon primitive as box body*
4,1,4,$2,$3,$4,$5,$6,$7,$8,$9,$2,$3,0*
0 Add four circle primitives for the rounded corners*
1,1,$1+$1,$2,$3*
1,1,$1+$1,$4,$5*
1,1,$1+$1,$6,$7*
1,1,$1+$1,$8,$9*
0 Add four rect primitives between the rounded corners*
20,1,$1+$1,$2,$3,$4,$5,0*
20,1,$1+$1,$4,$5,$6,$7,0*
20,1,$1+$1,$6,$7,$8,$9,0*
20,1,$1+$1,$8,$9,$2,$3,0*%
%AMHorizOval*
0 Thick line with rounded ends*
0 $1 width*
0 $2 $3 position (X,Y) of the first rounded end (center of the circle)*
0 $4 $5 position (X,Y) of the second rounded end (center of the circle)*
0 Add line between two ends*
20,1,$1,$2,$3,$4,$5,0*
0 Add two circle primitives to create the rounded ends*
1,1,$1,$2,$3*
1,1,$1,$4,$5*%
%AMRotRect*
0 Rectangle, with rotation*
0 The origin of the aperture is its center*
0 $1 length*
0 $2 width*
0 $3 Rotation angle, in degrees counterclockwise*
0 Add horizontal line*
21,1,$1,$2,0,0,$3*%
G04 Aperture macros list end*
%ADD10R,1.600000X1.600000*%
%ADD11RoundRect,0.225000X-0.375000X0.225000X-0.375000X-0.225000X0.375000X-0.225000X0.375000X0.225000X0*%
%ADD12O,1.600000X1.600000*%
%ADD13RotRect,1.600000X1.600000X240.000000*%
%ADD14RoundRect,0.225000X-0.212260X0.382356X-0.437260X-0.007356X0.212260X-0.382356X0.437260X0.007356X0*%
%ADD15HorizOval,1.600000X0.000000X0.000000X0.000000X0.000000X0*%
%ADD16R,1.450000X0.820000*%
%ADD17RoundRect,0.205000X-0.520000X-0.205000X0.520000X-0.205000X0.520000X0.205000X-0.520000X0.205000X0*%
%ADD18RotRect,1.450000X0.820000X330.000000*%
%ADD19RoundRect,0.205000X-0.552833X0.082465X0.347833X-0.437535X0.552833X-0.082465X-0.347833X0.437535X0*%
%ADD20RoundRect,0.205000X0.520000X0.205000X-0.520000X0.205000X-0.520000X-0.205000X0.520000X-0.205000X0*%
%ADD21C,3.800000*%
%ADD22R,1.700000X1.700000*%
%ADD23O,1.700000X1.700000*%
%ADD24O,1.800000X2.500000*%
%ADD25C,1.300000*%
%ADD26C,1.701800*%
%ADD27C,3.000000*%
%ADD28C,3.987800*%
%ADD29R,2.550000X2.500000*%
%ADD30RotRect,2.550000X2.500000X150.000000*%
%ADD31C,1.524000*%
G04 APERTURE END LIST*
D10*
%TO.C,D_6*%
X257750000Y-163630000D03*
D11*
X257750000Y-165850000D03*
X257750000Y-169150000D03*
D12*
X257750000Y-171250000D03*
%TD*%
D10*
%TO.C,D_7*%
X238750000Y-165880000D03*
D11*
X238750000Y-168100000D03*
X238750000Y-171400000D03*
D12*
X238750000Y-173500000D03*
%TD*%
D10*
%TO.C,D_8*%
X276750000Y-166130000D03*
D11*
X276750000Y-168350000D03*
X276750000Y-171650000D03*
D12*
X276750000Y-173750000D03*
%TD*%
D10*
%TO.C,D_10*%
X200750000Y-170880000D03*
D11*
X200750000Y-173100000D03*
X200750000Y-176400000D03*
D12*
X200750000Y-178500000D03*
%TD*%
D10*
%TO.C,D_11*%
X219750000Y-170880000D03*
D11*
X219750000Y-173100000D03*
X219750000Y-176400000D03*
D12*
X219750000Y-178500000D03*
%TD*%
D10*
%TO.C,D_17*%
X219500000Y-189880000D03*
D11*
X219500000Y-192100000D03*
X219500000Y-195400000D03*
D12*
X219500000Y-197500000D03*
%TD*%
D10*
%TO.C,D_0*%
X257750000Y-144630000D03*
D11*
X257750000Y-146850000D03*
X257750000Y-150150000D03*
D12*
X257750000Y-152250000D03*
%TD*%
D10*
%TO.C,D_1*%
X238750000Y-147130000D03*
D11*
X238750000Y-149350000D03*
X238750000Y-152650000D03*
D12*
X238750000Y-154750000D03*
%TD*%
D10*
%TO.C,D_2*%
X276750000Y-147130000D03*
D11*
X276750000Y-149350000D03*
X276750000Y-152650000D03*
D12*
X276750000Y-154750000D03*
%TD*%
D10*
%TO.C,D_3*%
X295750000Y-149380000D03*
D11*
X295750000Y-151600000D03*
X295750000Y-154900000D03*
D12*
X295750000Y-157000000D03*
%TD*%
D10*
%TO.C,D_4*%
X200500000Y-151880000D03*
D11*
X200500000Y-154100000D03*
X200500000Y-157400000D03*
D12*
X200500000Y-159500000D03*
%TD*%
D10*
%TO.C,D_5*%
X219750000Y-151880000D03*
D11*
X219750000Y-154100000D03*
X219750000Y-157400000D03*
D12*
X219750000Y-159500000D03*
%TD*%
D10*
%TO.C,D_9*%
X296000000Y-168380000D03*
D11*
X296000000Y-170600000D03*
X296000000Y-173900000D03*
D12*
X296000000Y-176000000D03*
%TD*%
D10*
%TO.C,D_12*%
X257750000Y-182630000D03*
D11*
X257750000Y-184850000D03*
X257750000Y-188150000D03*
D12*
X257750000Y-190250000D03*
%TD*%
D10*
%TO.C,D_13*%
X238750000Y-185130000D03*
D11*
X238750000Y-187350000D03*
X238750000Y-190650000D03*
D12*
X238750000Y-192750000D03*
%TD*%
D10*
%TO.C,D_15*%
X296000000Y-187380000D03*
D11*
X296000000Y-189600000D03*
X296000000Y-192900000D03*
D12*
X296000000Y-195000000D03*
%TD*%
D10*
%TO.C,D_16*%
X200500000Y-189880000D03*
D11*
X200500000Y-192100000D03*
X200500000Y-195400000D03*
D12*
X200500000Y-197500000D03*
%TD*%
D10*
%TO.C,D_18*%
X257750000Y-203880000D03*
D11*
X257750000Y-206100000D03*
X257750000Y-209400000D03*
D12*
X257750000Y-211500000D03*
%TD*%
D10*
%TO.C,D_19*%
X238500000Y-204130000D03*
D11*
X238500000Y-206350000D03*
X238500000Y-209650000D03*
D12*
X238500000Y-211750000D03*
%TD*%
D10*
%TO.C,D_20*%
X276750000Y-204130000D03*
D11*
X276750000Y-206350000D03*
X276750000Y-209650000D03*
D12*
X276750000Y-211750000D03*
%TD*%
D10*
%TO.C,D_21*%
X295750000Y-206380000D03*
D11*
X295750000Y-208600000D03*
X295750000Y-211900000D03*
D12*
X295750000Y-214000000D03*
%TD*%
D10*
%TO.C,D_22*%
X200500000Y-208880000D03*
D11*
X200500000Y-211100000D03*
X200500000Y-214400000D03*
D12*
X200500000Y-216500000D03*
%TD*%
D10*
%TO.C,D_23*%
X219500000Y-208880000D03*
D11*
X219500000Y-211100000D03*
X219500000Y-214400000D03*
D12*
X219500000Y-216500000D03*
%TD*%
D10*
%TO.C,D_24*%
X200500000Y-227880000D03*
D11*
X200500000Y-230100000D03*
X200500000Y-233400000D03*
D12*
X200500000Y-235500000D03*
%TD*%
D10*
%TO.C,D_25*%
X219500000Y-227880000D03*
D11*
X219500000Y-230100000D03*
X219500000Y-233400000D03*
D12*
X219500000Y-235500000D03*
%TD*%
D10*
%TO.C,D_26*%
X243500000Y-227880000D03*
D11*
X243500000Y-230100000D03*
X243500000Y-233400000D03*
D12*
X243500000Y-235500000D03*
%TD*%
D10*
%TO.C,D_27*%
X264862500Y-227880000D03*
D11*
X264862500Y-230100000D03*
X264862500Y-233400000D03*
D12*
X264862500Y-235500000D03*
%TD*%
D10*
%TO.C,D_28*%
X286250000Y-227880000D03*
D11*
X286250000Y-230100000D03*
X286250000Y-233400000D03*
D12*
X286250000Y-235500000D03*
%TD*%
D13*
%TO.C,D_29*%
X315185000Y-210898482D03*
D14*
X314075000Y-212821058D03*
X312425000Y-215678942D03*
D15*
X311375000Y-217497595D03*
%TD*%
D13*
%TO.C,D_30*%
X331935000Y-220398482D03*
D14*
X330825000Y-222321058D03*
X329175000Y-225178942D03*
D15*
X328125000Y-226997595D03*
%TD*%
D13*
%TO.C,D_31*%
X305935000Y-226398482D03*
D14*
X304825000Y-228321058D03*
X303175000Y-231178942D03*
D15*
X302125000Y-232997595D03*
%TD*%
D10*
%TO.C,D_14*%
X276750000Y-185130000D03*
D11*
X276750000Y-187350000D03*
X276750000Y-190650000D03*
D12*
X276750000Y-192750000D03*
%TD*%
D13*
%TO.C,D_32*%
X322685000Y-236648482D03*
D14*
X321575000Y-238571058D03*
X319925000Y-241428942D03*
D15*
X318875000Y-243247595D03*
%TD*%
D16*
%TO.C,D22*%
X246325000Y-203250000D03*
X246325000Y-204750000D03*
D17*
X251675000Y-204750000D03*
D16*
X251675000Y-203250000D03*
%TD*%
%TO.C,D23*%
X265075000Y-205750000D03*
X265075000Y-207250000D03*
D17*
X270425000Y-207250000D03*
D16*
X270425000Y-205750000D03*
%TD*%
D18*
%TO.C,D25*%
X319558382Y-215262981D03*
X318808382Y-216562019D03*
D19*
X323441618Y-219237019D03*
D18*
X324191618Y-217937981D03*
%TD*%
D16*
%TO.C,D2*%
X265325000Y-148500000D03*
X265325000Y-150000000D03*
D17*
X270675000Y-150000000D03*
D16*
X270675000Y-148500000D03*
%TD*%
D18*
%TO.C,D27*%
X327308382Y-241012981D03*
X326558382Y-242312019D03*
D19*
X331191618Y-244987019D03*
D18*
X331941618Y-243687981D03*
%TD*%
D16*
%TO.C,D33*%
X189075000Y-229500000D03*
X189075000Y-231000000D03*
D17*
X194425000Y-231000000D03*
D16*
X194425000Y-229500000D03*
%TD*%
D18*
%TO.C,D28*%
X310308382Y-231262981D03*
X309558382Y-232562019D03*
D19*
X314191618Y-235237019D03*
D18*
X314941618Y-233937981D03*
%TD*%
D16*
%TO.C,D32*%
X208075000Y-229500000D03*
X208075000Y-231000000D03*
D17*
X213425000Y-231000000D03*
D16*
X213425000Y-229500000D03*
%TD*%
%TO.C,D31*%
X231825000Y-229500000D03*
X231825000Y-231000000D03*
D17*
X237175000Y-231000000D03*
D16*
X237175000Y-229500000D03*
%TD*%
%TO.C,D3*%
X246325000Y-146250000D03*
X246325000Y-147750000D03*
D17*
X251675000Y-147750000D03*
D16*
X251675000Y-146250000D03*
%TD*%
%TO.C,D12*%
X284325000Y-170000000D03*
X284325000Y-171500000D03*
D17*
X289675000Y-171500000D03*
D16*
X289675000Y-170000000D03*
%TD*%
%TO.C,D15*%
X246325000Y-184250000D03*
X246325000Y-185750000D03*
D17*
X251675000Y-185750000D03*
D16*
X251675000Y-184250000D03*
%TD*%
%TO.C,D1*%
X284325000Y-151000000D03*
X284325000Y-152500000D03*
D20*
X289675000Y-152500000D03*
D16*
X289675000Y-151000000D03*
%TD*%
%TO.C,D16*%
X227075000Y-186750000D03*
X227075000Y-188250000D03*
D17*
X232425000Y-188250000D03*
D16*
X232425000Y-186750000D03*
%TD*%
%TO.C,D18*%
X188825000Y-191500000D03*
X188825000Y-193000000D03*
D17*
X194175000Y-193000000D03*
D16*
X194175000Y-191500000D03*
%TD*%
%TO.C,D29*%
X275000000Y-229500000D03*
X275000000Y-231000000D03*
D17*
X280350000Y-231000000D03*
D16*
X280350000Y-229500000D03*
%TD*%
%TO.C,D13*%
X284325000Y-189000000D03*
X284325000Y-190500000D03*
D17*
X289675000Y-190500000D03*
D16*
X289675000Y-189000000D03*
%TD*%
%TO.C,D6*%
X189325000Y-153250000D03*
X189325000Y-154750000D03*
D17*
X194675000Y-154750000D03*
D16*
X194675000Y-153250000D03*
%TD*%
%TO.C,D21*%
X227075000Y-205750000D03*
X227075000Y-207250000D03*
D17*
X232425000Y-207250000D03*
D16*
X232425000Y-205750000D03*
%TD*%
%TO.C,D4*%
X227325000Y-148500000D03*
X227325000Y-150000000D03*
D17*
X232675000Y-150000000D03*
D16*
X232675000Y-148500000D03*
%TD*%
D18*
%TO.C,D26*%
X336308382Y-225012981D03*
X335558382Y-226312019D03*
D19*
X340191618Y-228987019D03*
D18*
X340941618Y-227687981D03*
%TD*%
D16*
%TO.C,D20*%
X208075000Y-210500000D03*
X208075000Y-212000000D03*
D17*
X213425000Y-212000000D03*
D16*
X213425000Y-210500000D03*
%TD*%
%TO.C,D17*%
X208075000Y-191500000D03*
X208075000Y-193000000D03*
D17*
X213425000Y-193000000D03*
D16*
X213425000Y-191500000D03*
%TD*%
%TO.C,D5*%
X208325000Y-153250000D03*
X208325000Y-154750000D03*
D17*
X213675000Y-154750000D03*
D16*
X213675000Y-153250000D03*
%TD*%
%TO.C,D11*%
X265325000Y-167500000D03*
X265325000Y-169000000D03*
D17*
X270675000Y-169000000D03*
D16*
X270675000Y-167500000D03*
%TD*%
%TO.C,D30*%
X253325000Y-229500000D03*
X253325000Y-231000000D03*
D17*
X258675000Y-231000000D03*
D16*
X258675000Y-229500000D03*
%TD*%
%TO.C,D8*%
X208325000Y-172250000D03*
X208325000Y-173750000D03*
D17*
X213675000Y-173750000D03*
D16*
X213675000Y-172250000D03*
%TD*%
%TO.C,D7*%
X189075000Y-172250000D03*
X189075000Y-173750000D03*
D17*
X194425000Y-173750000D03*
D16*
X194425000Y-172250000D03*
%TD*%
%TO.C,D10*%
X246325000Y-165250000D03*
X246325000Y-166750000D03*
D17*
X251675000Y-166750000D03*
D16*
X251675000Y-165250000D03*
%TD*%
%TO.C,D14*%
X265325000Y-186750000D03*
X265325000Y-188250000D03*
D17*
X270675000Y-188250000D03*
D16*
X270675000Y-186750000D03*
%TD*%
%TO.C,D9*%
X227325000Y-167500000D03*
X227325000Y-169000000D03*
D17*
X232675000Y-169000000D03*
D16*
X232675000Y-167500000D03*
%TD*%
%TO.C,D24*%
X284325000Y-208000000D03*
X284325000Y-209500000D03*
D17*
X289675000Y-209500000D03*
D16*
X289675000Y-208000000D03*
%TD*%
%TO.C,D19*%
X189000000Y-210500000D03*
X189000000Y-212000000D03*
D17*
X194350000Y-212000000D03*
D16*
X194350000Y-210500000D03*
%TD*%
D21*
%TO.C,H11*%
X290750000Y-245000000D03*
%TD*%
D22*
%TO.C,J2*%
X313250000Y-190130000D03*
D23*
X313250000Y-192670000D03*
X313250000Y-195210000D03*
X313250000Y-197750000D03*
X313250000Y-200290000D03*
%TD*%
D21*
%TO.C,H10*%
X313250000Y-205650000D03*
%TD*%
%TO.C,H9*%
X313250000Y-184700000D03*
%TD*%
%TO.C,H8*%
X298500000Y-160750000D03*
%TD*%
%TO.C,H7*%
X329250000Y-259500000D03*
%TD*%
%TO.C,H6*%
X181500000Y-149500000D03*
%TD*%
%TO.C,H5*%
X348000000Y-226500000D03*
%TD*%
%TO.C,H4*%
X181500000Y-245000000D03*
%TD*%
%TO.C,H3*%
X248750000Y-222500000D03*
%TD*%
%TO.C,H2*%
X323750000Y-174750000D03*
%TD*%
%TO.C,H1*%
X249000000Y-139250000D03*
%TD*%
D24*
%TO.C,J1*%
X326800000Y-155412500D03*
D25*
X322600000Y-151212500D03*
X322600000Y-158212500D03*
X324500000Y-151212500D03*
X324500000Y-158212500D03*
D24*
X320300000Y-159412500D03*
X326800000Y-159412500D03*
X320300000Y-155412500D03*
X320300000Y-152412500D03*
X326800000Y-152412500D03*
X322200000Y-160512500D03*
X324900000Y-160512500D03*
%TD*%
D26*
%TO.C,K_0*%
X243795000Y-151937500D03*
D27*
X245065000Y-154477500D03*
X246225000Y-157017500D03*
D28*
X248875000Y-151937500D03*
D27*
X251415000Y-157017500D03*
X252575000Y-154477500D03*
D26*
X253955000Y-151937500D03*
D29*
X242475000Y-157017500D03*
X256325000Y-154477500D03*
%TD*%
D26*
%TO.C,K_1*%
X224745000Y-154318750D03*
D27*
X226015000Y-156858750D03*
X227175000Y-159398750D03*
D28*
X229825000Y-154318750D03*
D27*
X232365000Y-159398750D03*
X233525000Y-156858750D03*
D26*
X234905000Y-154318750D03*
D29*
X223425000Y-159398750D03*
X237275000Y-156858750D03*
%TD*%
D26*
%TO.C,K_2*%
X262845000Y-154318750D03*
D27*
X264115000Y-156858750D03*
X265275000Y-159398750D03*
D28*
X267925000Y-154318750D03*
D27*
X270465000Y-159398750D03*
X271625000Y-156858750D03*
D26*
X273005000Y-154318750D03*
D29*
X261525000Y-159398750D03*
X275375000Y-156858750D03*
%TD*%
D26*
%TO.C,K_3*%
X292055000Y-156700000D03*
D27*
X290785000Y-159240000D03*
X289625000Y-161780000D03*
D28*
X286975000Y-156700000D03*
D27*
X284435000Y-161780000D03*
X283275000Y-159240000D03*
D26*
X281895000Y-156700000D03*
D29*
X280685000Y-161780000D03*
X294535000Y-159240000D03*
%TD*%
D26*
%TO.C,K_4*%
X186645000Y-159081250D03*
D27*
X187915000Y-161621250D03*
X189075000Y-164161250D03*
D28*
X191725000Y-159081250D03*
D27*
X194265000Y-164161250D03*
X195425000Y-161621250D03*
D26*
X196805000Y-159081250D03*
D29*
X185325000Y-164161250D03*
X199175000Y-161621250D03*
%TD*%
D26*
%TO.C,K_5*%
X205695000Y-159081250D03*
D27*
X206965000Y-161621250D03*
X208125000Y-164161250D03*
D28*
X210775000Y-159081250D03*
D27*
X213315000Y-164161250D03*
X214475000Y-161621250D03*
D26*
X215855000Y-159081250D03*
D29*
X204375000Y-164161250D03*
X218225000Y-161621250D03*
%TD*%
D26*
%TO.C,K_6*%
X243795000Y-170987500D03*
D27*
X245065000Y-173527500D03*
X246225000Y-176067500D03*
D28*
X248875000Y-170987500D03*
D27*
X251415000Y-176067500D03*
X252575000Y-173527500D03*
D26*
X253955000Y-170987500D03*
D29*
X242475000Y-176067500D03*
X256325000Y-173527500D03*
%TD*%
D26*
%TO.C,K_7*%
X224745000Y-173368750D03*
D27*
X226015000Y-175908750D03*
X227175000Y-178448750D03*
D28*
X229825000Y-173368750D03*
D27*
X232365000Y-178448750D03*
X233525000Y-175908750D03*
D26*
X234905000Y-173368750D03*
D29*
X223425000Y-178448750D03*
X237275000Y-175908750D03*
%TD*%
D26*
%TO.C,K_8*%
X262845000Y-173368750D03*
D27*
X264115000Y-175908750D03*
X265275000Y-178448750D03*
D28*
X267925000Y-173368750D03*
D27*
X270465000Y-178448750D03*
X271625000Y-175908750D03*
D26*
X273005000Y-173368750D03*
D29*
X261525000Y-178448750D03*
X275375000Y-175908750D03*
%TD*%
%TO.C,K_9*%
X294425000Y-178290000D03*
X280575000Y-180830000D03*
D26*
X292055000Y-175750000D03*
D27*
X290675000Y-178290000D03*
X289515000Y-180830000D03*
D28*
X286975000Y-175750000D03*
D27*
X284325000Y-180830000D03*
X283165000Y-178290000D03*
D26*
X281895000Y-175750000D03*
%TD*%
D29*
%TO.C,K_10*%
X199175000Y-180671250D03*
X185325000Y-183211250D03*
D26*
X196805000Y-178131250D03*
D27*
X195425000Y-180671250D03*
X194265000Y-183211250D03*
D28*
X191725000Y-178131250D03*
D27*
X189075000Y-183211250D03*
X187915000Y-180671250D03*
D26*
X186645000Y-178131250D03*
%TD*%
%TO.C,K_11*%
X205695000Y-178131250D03*
D27*
X206965000Y-180671250D03*
X208125000Y-183211250D03*
D28*
X210775000Y-178131250D03*
D27*
X213315000Y-183211250D03*
X214475000Y-180671250D03*
D26*
X215855000Y-178131250D03*
D29*
X204375000Y-183211250D03*
X218225000Y-180671250D03*
%TD*%
D26*
%TO.C,K_12*%
X243795000Y-190037500D03*
D27*
X245065000Y-192577500D03*
X246225000Y-195117500D03*
D28*
X248875000Y-190037500D03*
D27*
X251415000Y-195117500D03*
X252575000Y-192577500D03*
D26*
X253955000Y-190037500D03*
D29*
X242475000Y-195117500D03*
X256325000Y-192577500D03*
%TD*%
D26*
%TO.C,K_13*%
X224745000Y-192418750D03*
D27*
X226015000Y-194958750D03*
X227175000Y-197498750D03*
D28*
X229825000Y-192418750D03*
D27*
X232365000Y-197498750D03*
X233525000Y-194958750D03*
D26*
X234905000Y-192418750D03*
D29*
X223425000Y-197498750D03*
X237275000Y-194958750D03*
%TD*%
D26*
%TO.C,K_14*%
X262845000Y-192418750D03*
D27*
X264115000Y-194958750D03*
X265275000Y-197498750D03*
D28*
X267925000Y-192418750D03*
D27*
X270465000Y-197498750D03*
X271625000Y-194958750D03*
D26*
X273005000Y-192418750D03*
D29*
X261525000Y-197498750D03*
X275375000Y-194958750D03*
%TD*%
%TO.C,K_15*%
X294425000Y-197340000D03*
X280575000Y-199880000D03*
D26*
X292055000Y-194800000D03*
D27*
X290675000Y-197340000D03*
X289515000Y-199880000D03*
D28*
X286975000Y-194800000D03*
D27*
X284325000Y-199880000D03*
X283165000Y-197340000D03*
D26*
X281895000Y-194800000D03*
%TD*%
%TO.C,K_16*%
X186645000Y-197181250D03*
D27*
X187915000Y-199721250D03*
X189075000Y-202261250D03*
D28*
X191725000Y-197181250D03*
D27*
X194265000Y-202261250D03*
X195425000Y-199721250D03*
D26*
X196805000Y-197181250D03*
D29*
X185325000Y-202261250D03*
X199175000Y-199721250D03*
%TD*%
D26*
%TO.C,K_17*%
X205695000Y-197181250D03*
D27*
X206965000Y-199721250D03*
X208125000Y-202261250D03*
D28*
X210775000Y-197181250D03*
D27*
X213315000Y-202261250D03*
X214475000Y-199721250D03*
D26*
X215855000Y-197181250D03*
D29*
X204375000Y-202261250D03*
X218225000Y-199721250D03*
%TD*%
D26*
%TO.C,K_18*%
X243795000Y-209087500D03*
D27*
X245065000Y-211627500D03*
X246225000Y-214167500D03*
D28*
X248875000Y-209087500D03*
D27*
X251415000Y-214167500D03*
X252575000Y-211627500D03*
D26*
X253955000Y-209087500D03*
D29*
X242475000Y-214167500D03*
X256325000Y-211627500D03*
%TD*%
D26*
%TO.C,K_19*%
X224745000Y-211468750D03*
D27*
X226015000Y-214008750D03*
X227175000Y-216548750D03*
D28*
X229825000Y-211468750D03*
D27*
X232365000Y-216548750D03*
X233525000Y-214008750D03*
D26*
X234905000Y-211468750D03*
D29*
X223425000Y-216548750D03*
X237275000Y-214008750D03*
%TD*%
D26*
%TO.C,K_20*%
X262845000Y-211468750D03*
D27*
X264115000Y-214008750D03*
X265275000Y-216548750D03*
D28*
X267925000Y-211468750D03*
D27*
X270465000Y-216548750D03*
X271625000Y-214008750D03*
D26*
X273005000Y-211468750D03*
D29*
X261525000Y-216548750D03*
X275375000Y-214008750D03*
%TD*%
D26*
%TO.C,K_21*%
X281895000Y-213850000D03*
D27*
X283165000Y-216390000D03*
X284325000Y-218930000D03*
D28*
X286975000Y-213850000D03*
D27*
X289515000Y-218930000D03*
X290675000Y-216390000D03*
D26*
X292055000Y-213850000D03*
D29*
X280575000Y-218930000D03*
X294425000Y-216390000D03*
%TD*%
D26*
%TO.C,K_22*%
X186645000Y-216231250D03*
D27*
X187915000Y-218771250D03*
X189075000Y-221311250D03*
D28*
X191725000Y-216231250D03*
D27*
X194265000Y-221311250D03*
X195425000Y-218771250D03*
D26*
X196805000Y-216231250D03*
D29*
X185325000Y-221311250D03*
X199175000Y-218771250D03*
%TD*%
D26*
%TO.C,K_23*%
X205695000Y-216231250D03*
D27*
X206965000Y-218771250D03*
X208125000Y-221311250D03*
D28*
X210775000Y-216231250D03*
D27*
X213315000Y-221311250D03*
X214475000Y-218771250D03*
D26*
X215855000Y-216231250D03*
D29*
X204375000Y-221311250D03*
X218225000Y-218771250D03*
%TD*%
D26*
%TO.C,K_24*%
X186645000Y-235281250D03*
D27*
X187915000Y-237821250D03*
X189075000Y-240361250D03*
D28*
X191725000Y-235281250D03*
D27*
X194265000Y-240361250D03*
X195425000Y-237821250D03*
D26*
X196805000Y-235281250D03*
D29*
X185325000Y-240361250D03*
X199175000Y-237821250D03*
%TD*%
D26*
%TO.C,K_25*%
X205695000Y-235281250D03*
D27*
X206965000Y-237821250D03*
X208125000Y-240361250D03*
D28*
X210775000Y-235281250D03*
D27*
X213315000Y-240361250D03*
X214475000Y-237821250D03*
D26*
X215855000Y-235281250D03*
D29*
X204375000Y-240361250D03*
X218225000Y-237821250D03*
%TD*%
D26*
%TO.C,K_26*%
X229507500Y-235281250D03*
D27*
X230777500Y-237821250D03*
X231937500Y-240361250D03*
D28*
X234587500Y-235281250D03*
D27*
X237127500Y-240361250D03*
X238287500Y-237821250D03*
D26*
X239667500Y-235281250D03*
D29*
X228187500Y-240361250D03*
X242037500Y-237821250D03*
%TD*%
D26*
%TO.C,K_27*%
X250920000Y-235281250D03*
D27*
X252190000Y-237821250D03*
X253350000Y-240361250D03*
D28*
X256000000Y-235281250D03*
D27*
X258540000Y-240361250D03*
X259700000Y-237821250D03*
D26*
X261080000Y-235281250D03*
D29*
X249600000Y-240361250D03*
X263450000Y-237821250D03*
%TD*%
D26*
%TO.C,K_28*%
X272370000Y-235281250D03*
D27*
X273640000Y-237821250D03*
X274800000Y-240361250D03*
D28*
X277450000Y-235281250D03*
D27*
X279990000Y-240361250D03*
X281150000Y-237821250D03*
D26*
X282530000Y-235281250D03*
D29*
X271050000Y-240361250D03*
X284900000Y-237821250D03*
%TD*%
D26*
%TO.C,K_29*%
X314600591Y-219242399D03*
D27*
X314430443Y-222077104D03*
X314165033Y-224856808D03*
D28*
X319000000Y-221782399D03*
D27*
X318659705Y-227451808D03*
X320934294Y-225832104D03*
D26*
X323399409Y-224322399D03*
D30*
X310917437Y-222981808D03*
X324181889Y-227707104D03*
%TD*%
D26*
%TO.C,K_30*%
X331201182Y-228920000D03*
D27*
X331031034Y-231754705D03*
X330765624Y-234534409D03*
D28*
X335600591Y-231460000D03*
D27*
X335260296Y-237129409D03*
X337534885Y-235509705D03*
D26*
X340000000Y-234000000D03*
D30*
X327518028Y-232659409D03*
X340782480Y-237384705D03*
%TD*%
D26*
%TO.C,K_31*%
X305201182Y-234920000D03*
D27*
X305031034Y-237754705D03*
X304765624Y-240534409D03*
D28*
X309600591Y-237460000D03*
D27*
X309260296Y-243129409D03*
X311534885Y-241509705D03*
D26*
X314000000Y-240000000D03*
D30*
X301518028Y-238659409D03*
X314782480Y-243384705D03*
%TD*%
D26*
%TO.C,K_32*%
X322086875Y-245000000D03*
D27*
X321916727Y-247834705D03*
X321651317Y-250614409D03*
D28*
X326486284Y-247540000D03*
D27*
X326145989Y-253209409D03*
X328420578Y-251589705D03*
D26*
X330885693Y-250080000D03*
D30*
X318403721Y-248739409D03*
X331668173Y-253464705D03*
%TD*%
D31*
%TO.C,U1*%
X302460000Y-151500000D03*
X302460000Y-154040000D03*
X302460000Y-161660000D03*
X302460000Y-164200000D03*
X317700000Y-159120000D03*
X302460000Y-166740000D03*
X302460000Y-169280000D03*
X317700000Y-151500000D03*
X302460000Y-171820000D03*
X302460000Y-174360000D03*
X302460000Y-176900000D03*
X302460000Y-179440000D03*
X302510000Y-148960000D03*
X317700000Y-148960000D03*
X305000000Y-179440000D03*
X307540000Y-179440000D03*
X310080000Y-179440000D03*
X312620000Y-179440000D03*
X315160000Y-179440000D03*
X313220000Y-165000000D03*
X317700000Y-174360000D03*
X317700000Y-179440000D03*
X317700000Y-171820000D03*
X317700000Y-176900000D03*
X315210000Y-165000000D03*
X305000000Y-176900000D03*
X317700000Y-169280000D03*
X317700000Y-166740000D03*
X317700000Y-164200000D03*
X317700000Y-161660000D03*
X305210000Y-155770000D03*
X302460000Y-156580000D03*
X302460000Y-159120000D03*
X317700000Y-154040000D03*
X317700000Y-156580000D03*
%TD*%
M02*
