%TF.GenerationSoftware,KiCad,Pcbnew,9.0.0*%
%TF.CreationDate,2025-08-26T18:36:53+02:00*%
%TF.ProjectId,keyboard,6b657962-6f61-4726-942e-6b696361645f,rev?*%
%TF.SameCoordinates,Original*%
%TF.FileFunction,Other,Comment*%
%FSLAX46Y46*%
G04 Gerber Fmt 4.6, Leading zero omitted, Abs format (unit mm)*
G04 Created by KiCad (PCBNEW 9.0.0) date 2025-08-26 18:36:53*
%MOMM*%
%LPD*%
G01*
G04 APERTURE LIST*
%ADD10C,0.150000*%
%ADD11C,0.120000*%
G04 APERTURE END LIST*
D10*
%TO.C,H6*%
X184400000Y-148750000D02*
G75*
G02*
X180600000Y-148750000I-1900000J0D01*
G01*
X180600000Y-148750000D02*
G75*
G02*
X184400000Y-148750000I1900000J0D01*
G01*
%TO.C,H4*%
X184400000Y-245500000D02*
G75*
G02*
X180600000Y-245500000I-1900000J0D01*
G01*
X180600000Y-245500000D02*
G75*
G02*
X184400000Y-245500000I1900000J0D01*
G01*
%TO.C,H8*%
X300400000Y-160750000D02*
G75*
G02*
X296600000Y-160750000I-1900000J0D01*
G01*
X296600000Y-160750000D02*
G75*
G02*
X300400000Y-160750000I1900000J0D01*
G01*
%TO.C,H10*%
X315150000Y-213000000D02*
G75*
G02*
X311350000Y-213000000I-1900000J0D01*
G01*
X311350000Y-213000000D02*
G75*
G02*
X315150000Y-213000000I1900000J0D01*
G01*
%TO.C,H5*%
X339900000Y-228750000D02*
G75*
G02*
X336100000Y-228750000I-1900000J0D01*
G01*
X336100000Y-228750000D02*
G75*
G02*
X339900000Y-228750000I1900000J0D01*
G01*
%TO.C,H3*%
X250650000Y-222500000D02*
G75*
G02*
X246850000Y-222500000I-1900000J0D01*
G01*
X246850000Y-222500000D02*
G75*
G02*
X250650000Y-222500000I1900000J0D01*
G01*
%TO.C,H2*%
X325650000Y-174750000D02*
G75*
G02*
X321850000Y-174750000I-1900000J0D01*
G01*
X321850000Y-174750000D02*
G75*
G02*
X325650000Y-174750000I1900000J0D01*
G01*
%TO.C,H1*%
X250900000Y-139250000D02*
G75*
G02*
X247100000Y-139250000I-1900000J0D01*
G01*
X247100000Y-139250000D02*
G75*
G02*
X250900000Y-139250000I1900000J0D01*
G01*
%TO.C,H11*%
X286400000Y-245500000D02*
G75*
G02*
X282600000Y-245500000I-1900000J0D01*
G01*
X282600000Y-245500000D02*
G75*
G02*
X286400000Y-245500000I1900000J0D01*
G01*
%TO.C,H7*%
X320650000Y-262750000D02*
G75*
G02*
X316850000Y-262750000I-1900000J0D01*
G01*
X316850000Y-262750000D02*
G75*
G02*
X320650000Y-262750000I1900000J0D01*
G01*
D11*
%TO.C,D25*%
X309414359Y-220162436D02*
X312185642Y-221762436D01*
X310814358Y-217737564D02*
X309414359Y-220162436D01*
X312185642Y-221762436D02*
X313585641Y-219337564D01*
X313585641Y-219337564D02*
X310814358Y-217737564D01*
%TO.C,D2*%
X266400000Y-147850000D02*
X266400000Y-150650000D01*
X266400000Y-150650000D02*
X269600000Y-150650000D01*
X269600000Y-147850000D02*
X266400000Y-147850000D01*
X269600000Y-150650000D02*
X269600000Y-147850000D01*
%TO.C,D27*%
X317164359Y-245912436D02*
X319935642Y-247512436D01*
X318564358Y-243487564D02*
X317164359Y-245912436D01*
X319935642Y-247512436D02*
X321335641Y-245087564D01*
X321335641Y-245087564D02*
X318564358Y-243487564D01*
%TO.C,D33*%
X190150000Y-228850000D02*
X190150000Y-231650000D01*
X190150000Y-231650000D02*
X193350000Y-231650000D01*
X193350000Y-228850000D02*
X190150000Y-228850000D01*
X193350000Y-231650000D02*
X193350000Y-228850000D01*
%TO.C,D28*%
X300164359Y-236162436D02*
X302935642Y-237762436D01*
X301564358Y-233737564D02*
X300164359Y-236162436D01*
X302935642Y-237762436D02*
X304335641Y-235337564D01*
X304335641Y-235337564D02*
X301564358Y-233737564D01*
%TO.C,D32*%
X209150000Y-228850000D02*
X209150000Y-231650000D01*
X209150000Y-231650000D02*
X212350000Y-231650000D01*
X212350000Y-228850000D02*
X209150000Y-228850000D01*
X212350000Y-231650000D02*
X212350000Y-228850000D01*
%TO.C,D31*%
X232900000Y-228850000D02*
X232900000Y-231650000D01*
X232900000Y-231650000D02*
X236100000Y-231650000D01*
X236100000Y-228850000D02*
X232900000Y-228850000D01*
X236100000Y-231650000D02*
X236100000Y-228850000D01*
%TO.C,D3*%
X247400000Y-145600000D02*
X247400000Y-148400000D01*
X247400000Y-148400000D02*
X250600000Y-148400000D01*
X250600000Y-145600000D02*
X247400000Y-145600000D01*
X250600000Y-148400000D02*
X250600000Y-145600000D01*
%TO.C,D12*%
X285400000Y-169350000D02*
X285400000Y-172150000D01*
X285400000Y-172150000D02*
X288600000Y-172150000D01*
X288600000Y-169350000D02*
X285400000Y-169350000D01*
X288600000Y-172150000D02*
X288600000Y-169350000D01*
%TO.C,D15*%
X247400000Y-183600000D02*
X247400000Y-186400000D01*
X247400000Y-186400000D02*
X250600000Y-186400000D01*
X250600000Y-183600000D02*
X247400000Y-183600000D01*
X250600000Y-186400000D02*
X250600000Y-183600000D01*
%TO.C,D1*%
X285400000Y-150350000D02*
X285400000Y-153150000D01*
X285400000Y-153150000D02*
X288600000Y-153150000D01*
X288600000Y-150350000D02*
X285400000Y-150350000D01*
X288600000Y-153150000D02*
X288600000Y-150350000D01*
%TO.C,D16*%
X228150000Y-186100000D02*
X228150000Y-188900000D01*
X228150000Y-188900000D02*
X231350000Y-188900000D01*
X231350000Y-186100000D02*
X228150000Y-186100000D01*
X231350000Y-188900000D02*
X231350000Y-186100000D01*
%TO.C,D18*%
X189900000Y-190850000D02*
X189900000Y-193650000D01*
X189900000Y-193650000D02*
X193100000Y-193650000D01*
X193100000Y-190850000D02*
X189900000Y-190850000D01*
X193100000Y-193650000D02*
X193100000Y-190850000D01*
%TO.C,D29*%
X276075000Y-228850000D02*
X276075000Y-231650000D01*
X276075000Y-231650000D02*
X279275000Y-231650000D01*
X279275000Y-228850000D02*
X276075000Y-228850000D01*
X279275000Y-231650000D02*
X279275000Y-228850000D01*
%TO.C,D13*%
X285400000Y-188350000D02*
X285400000Y-191150000D01*
X285400000Y-191150000D02*
X288600000Y-191150000D01*
X288600000Y-188350000D02*
X285400000Y-188350000D01*
X288600000Y-191150000D02*
X288600000Y-188350000D01*
%TO.C,D6*%
X190400000Y-152600000D02*
X190400000Y-155400000D01*
X190400000Y-155400000D02*
X193600000Y-155400000D01*
X193600000Y-152600000D02*
X190400000Y-152600000D01*
X193600000Y-155400000D02*
X193600000Y-152600000D01*
%TO.C,D21*%
X228150000Y-205100000D02*
X228150000Y-207900000D01*
X228150000Y-207900000D02*
X231350000Y-207900000D01*
X231350000Y-205100000D02*
X228150000Y-205100000D01*
X231350000Y-207900000D02*
X231350000Y-205100000D01*
%TO.C,D4*%
X228400000Y-147850000D02*
X228400000Y-150650000D01*
X228400000Y-150650000D02*
X231600000Y-150650000D01*
X231600000Y-147850000D02*
X228400000Y-147850000D01*
X231600000Y-150650000D02*
X231600000Y-147850000D01*
%TO.C,D26*%
X326164359Y-229912436D02*
X328935642Y-231512436D01*
X327564358Y-227487564D02*
X326164359Y-229912436D01*
X328935642Y-231512436D02*
X330335641Y-229087564D01*
X330335641Y-229087564D02*
X327564358Y-227487564D01*
%TO.C,D20*%
X209150000Y-209850000D02*
X209150000Y-212650000D01*
X209150000Y-212650000D02*
X212350000Y-212650000D01*
X212350000Y-209850000D02*
X209150000Y-209850000D01*
X212350000Y-212650000D02*
X212350000Y-209850000D01*
%TO.C,D17*%
X209150000Y-190850000D02*
X209150000Y-193650000D01*
X209150000Y-193650000D02*
X212350000Y-193650000D01*
X212350000Y-190850000D02*
X209150000Y-190850000D01*
X212350000Y-193650000D02*
X212350000Y-190850000D01*
%TO.C,D5*%
X209400000Y-152600000D02*
X209400000Y-155400000D01*
X209400000Y-155400000D02*
X212600000Y-155400000D01*
X212600000Y-152600000D02*
X209400000Y-152600000D01*
X212600000Y-155400000D02*
X212600000Y-152600000D01*
%TO.C,D11*%
X266400000Y-166850000D02*
X266400000Y-169650000D01*
X266400000Y-169650000D02*
X269600000Y-169650000D01*
X269600000Y-166850000D02*
X266400000Y-166850000D01*
X269600000Y-169650000D02*
X269600000Y-166850000D01*
%TO.C,D30*%
X254400000Y-228850000D02*
X254400000Y-231650000D01*
X254400000Y-231650000D02*
X257600000Y-231650000D01*
X257600000Y-228850000D02*
X254400000Y-228850000D01*
X257600000Y-231650000D02*
X257600000Y-228850000D01*
%TO.C,D8*%
X209400000Y-171600000D02*
X209400000Y-174400000D01*
X209400000Y-174400000D02*
X212600000Y-174400000D01*
X212600000Y-171600000D02*
X209400000Y-171600000D01*
X212600000Y-174400000D02*
X212600000Y-171600000D01*
%TO.C,D7*%
X190150000Y-171600000D02*
X190150000Y-174400000D01*
X190150000Y-174400000D02*
X193350000Y-174400000D01*
X193350000Y-171600000D02*
X190150000Y-171600000D01*
X193350000Y-174400000D02*
X193350000Y-171600000D01*
%TO.C,D10*%
X247400000Y-164600000D02*
X247400000Y-167400000D01*
X247400000Y-167400000D02*
X250600000Y-167400000D01*
X250600000Y-164600000D02*
X247400000Y-164600000D01*
X250600000Y-167400000D02*
X250600000Y-164600000D01*
%TO.C,D22*%
X247400000Y-202600000D02*
X247400000Y-205400000D01*
X247400000Y-205400000D02*
X250600000Y-205400000D01*
X250600000Y-202600000D02*
X247400000Y-202600000D01*
X250600000Y-205400000D02*
X250600000Y-202600000D01*
%TO.C,D14*%
X266400000Y-186100000D02*
X266400000Y-188900000D01*
X266400000Y-188900000D02*
X269600000Y-188900000D01*
X269600000Y-186100000D02*
X266400000Y-186100000D01*
X269600000Y-188900000D02*
X269600000Y-186100000D01*
%TO.C,D9*%
X228400000Y-166850000D02*
X228400000Y-169650000D01*
X228400000Y-169650000D02*
X231600000Y-169650000D01*
X231600000Y-166850000D02*
X228400000Y-166850000D01*
X231600000Y-169650000D02*
X231600000Y-166850000D01*
%TO.C,D24*%
X285400000Y-207350000D02*
X285400000Y-210150000D01*
X285400000Y-210150000D02*
X288600000Y-210150000D01*
X288600000Y-207350000D02*
X285400000Y-207350000D01*
X288600000Y-210150000D02*
X288600000Y-207350000D01*
%TO.C,D19*%
X190075000Y-209850000D02*
X190075000Y-212650000D01*
X190075000Y-212650000D02*
X193275000Y-212650000D01*
X193275000Y-209850000D02*
X190075000Y-209850000D01*
X193275000Y-212650000D02*
X193275000Y-209850000D01*
%TO.C,D23*%
X266150000Y-205100000D02*
X266150000Y-207900000D01*
X266150000Y-207900000D02*
X269350000Y-207900000D01*
X269350000Y-205100000D02*
X266150000Y-205100000D01*
X269350000Y-207900000D02*
X269350000Y-205100000D01*
%TD*%
M02*
