M48
; DRILL file {KiCad 9.0.0} date 2025-07-27T21:57:38+0200
; FORMAT={-:-/ absolute / inch / decimal}
; #@! TF.CreationDate,2025-07-27T21:57:38+02:00
; #@! TF.GenerationSoftware,Kicad,Pcbnew,9.0.0
; #@! TF.FileFunction,Plated,1,2,PTH
FMAT,2
INCH
; #@! TA.AperFunction,Plated,PTH,ViaDrill
T1C0.0157
; #@! TA.AperFunction,Plated,PTH,ComponentDrill
T2C0.0300
; #@! TA.AperFunction,Plated,PTH,ComponentDrill
T3C0.0315
; #@! TA.AperFunction,Plated,PTH,ComponentDrill
T4C0.0394
; #@! TA.AperFunction,Plated,PTH,ComponentDrill
T5C0.0866
%
G90
G05
T1
X7.0768Y-6.3681
X7.0768Y-6.8373
X7.0768Y-7.3064
X7.0768Y-7.7756
X7.0768Y-8.2448
X7.0768Y-8.7139
X7.0768Y-9.1831
X7.2539Y-8.3465
X7.2638Y-7.5394
X7.2677Y-6.7126
X7.2726Y-6.0335
X7.3248Y-7.5394
X7.3917Y-6.0335
X7.5098Y-5.9547
X7.5591Y-5.9843
X7.5591Y-7.3819
X7.5787Y-9.6949
X7.5984Y-5.7972
X7.6083Y-6.7126
X7.6181Y-7.4803
X7.6181Y-8.2382
X7.6374Y-7.6382
X7.6378Y-8.3912
X7.6476Y-6.8898
X7.6476Y-9.1343
X7.6575Y-6.1412
X7.7067Y-9.0354
X7.7165Y-6.8898
X7.7165Y-7.5394
X7.7165Y-8.2874
X7.7264Y-6.7815
X7.7264Y-7.2933
X7.7264Y-8.0512
X7.7264Y-8.7992
X7.7264Y-9.5472
X7.7461Y-8.1496
X7.7461Y-8.3858
X7.7559Y-6.5453
X7.8937Y-6.063
X7.8937Y-6.2008
X7.8937Y-7.5689
X7.8937Y-7.6417
X7.8937Y-7.6929
X7.8937Y-8.3169
X7.8937Y-8.4409
X7.8937Y-9.065
X7.8937Y-9.123
X7.8937Y-9.189
X7.9035Y-6.6142
X7.9035Y-6.8248
X7.9035Y-6.9449
X7.9232Y-7.2146
X7.9626Y-6.1417
X7.9724Y-6.998
X7.9921Y-5.935
X8.002Y-6.8406
X8.002Y-8.3465
X8.0315Y-6.2106
X8.0315Y-6.6437
X8.0315Y-6.9587
X8.0315Y-7.3524
X8.0315Y-7.7165
X8.0315Y-8.1004
X8.0315Y-8.4646
X8.0315Y-8.9665
X8.0315Y-9.2126
X8.061Y-8.2874
X8.061Y-8.3465
X8.0709Y-6.8898
X8.0906Y-7.628
X8.0906Y-9.1339
X8.1102Y-6.1122
X8.1201Y-6.7815
X8.1201Y-6.8406
X8.1201Y-9.0354
X8.1299Y-7.5394
X8.1299Y-9.6949
X8.2185Y-5.8858
X8.2657Y-5.935
X8.2972Y-7.3917
X8.3169Y-6.6142
X8.3263Y-5.9651
X8.3465Y-8.2382
X8.3563Y-6.7126
X8.3563Y-7.4803
X8.376Y-8.9862
X8.3858Y-6.1412
X8.3858Y-6.8898
X8.3858Y-7.6388
X8.3858Y-8.3868
X8.4055Y-9.1348
X8.4252Y-5.935
X8.4547Y-7.2933
X8.4547Y-9.0354
X8.4646Y-6.7815
X8.4646Y-7.5394
X8.4646Y-8.1496
X8.4646Y-8.7992
X8.4646Y-9.5571
X8.4744Y-8.2874
X8.4843Y-8.0512
X8.4941Y-6.8799
X8.5236Y-6.5453
X8.5531Y-7.6476
X8.563Y-5.7874
X8.6417Y-7.563
X8.6417Y-7.6929
X8.6417Y-8.311
X8.6417Y-8.4409
X8.6417Y-9.0591
X8.6417Y-9.124
X8.6417Y-9.189
X8.6516Y-6.063
X8.6516Y-6.1969
X8.6516Y-6.815
X8.6516Y-6.9449
X8.6811Y-9.6949
X8.7205Y-7.4311
X8.7411Y-8.1596
X8.751Y-6.6535
X8.7697Y-7.1752
X8.7697Y-7.5295
X8.7697Y-7.9035
X8.7697Y-8.2874
X8.7702Y-6.034
X8.7795Y-6.3976
X8.7795Y-6.7618
X8.7795Y-9.3602
X8.7992Y-7.3524
X8.8081Y-6.6535
X8.8091Y-6.5945
X8.8189Y-8.189
X8.8287Y-8.0118
X8.8583Y-5.9055
X8.8681Y-8.1594
X8.878Y-8.1004
X8.9272Y-5.6309
X8.9272Y-8.2776
X8.9469Y-8.9862
X8.9469Y-9.2028
X8.9764Y-9.0354
X9.0059Y-8.7402
X9.0256Y-5.748
X9.0256Y-9.1339
X9.0551Y-7.1949
X9.065Y-5.7776
X9.065Y-6.437
X9.1142Y-7.2933
X9.1142Y-8.0512
X9.124Y-6.5354
X9.1339Y-7.4518
X9.1339Y-8.1998
X9.1535Y-6.7028
X9.1634Y-5.9459
X9.2028Y-7.3524
X9.2126Y-8.1004
X9.2224Y-6.3583
X9.2224Y-8.6024
X9.2323Y-7.1063
X9.2323Y-9.6949
X9.2421Y-6.5945
X9.2421Y-7.8642
X9.2421Y-7.9331
X9.252Y-5.4331
X9.311Y-7.3031
X9.311Y-8.9862
X9.3406Y-9.1343
X9.3602Y-8.7402
X9.3898Y-8.124
X9.3898Y-8.1988
X9.3898Y-8.2539
X9.3996Y-5.8799
X9.3996Y-6.0098
X9.3996Y-6.6181
X9.3996Y-6.748
X9.3996Y-7.376
X9.3996Y-7.5059
X9.3996Y-9.0354
X9.4094Y-9.5571
X9.4488Y-5.9744
X9.4783Y-7.2835
X9.4783Y-7.372
X9.4892Y-8.0906
X9.498Y-6.565
X9.5177Y-7.8051
X9.5177Y-8.189
X9.527Y-5.9443
X9.5276Y-6.3091
X9.5276Y-6.6831
X9.5276Y-7.0965
X9.5276Y-7.4311
X9.5472Y-8.0413
X9.5571Y-8.0906
X9.5669Y-6.6043
X9.5866Y-9.0591
X9.5866Y-9.124
X9.5866Y-9.189
X9.5965Y-5.8366
X9.5974Y-5.6486
X9.6161Y-6.5059
X9.6161Y-6.565
X9.6161Y-7.2539
X9.6194Y-5.4331
X9.6358Y-5.749
X9.6457Y-7.3425
X9.6555Y-9.3602
X9.6654Y-7.4311
X9.7146Y-9.124
X9.7736Y-5.7087
X9.7835Y-9.6949
X9.8031Y-7.1063
X9.8031Y-8.9961
X9.8031Y-9.2126
X9.813Y-6.3386
X9.8327Y-9.0354
X9.8524Y-5.6791
X9.8524Y-6.4469
X9.872Y-7.1949
X9.872Y-9.124
X9.8819Y-7.9429
X9.8819Y-9.065
X9.8868Y-8.1099
X9.9016Y-5.8567
X9.9016Y-6.6053
X9.9114Y-7.3528
X9.9114Y-8.9272
X9.9606Y-7.0177
X9.9606Y-8.5039
X9.9606Y-9.2224
X9.9705Y-7.7657
X9.9705Y-8.002
X9.9803Y-6.2598
X9.9803Y-6.5059
X9.9803Y-7.2539
X9.9869Y-5.4331
X10.0Y-7.8445
X10.0197Y-5.8169
X10.0394Y-8.0512
X10.1181Y-8.7303
X10.1476Y-5.7776
X10.1476Y-5.9114
X10.1476Y-6.3386
X10.1476Y-6.5295
X10.1476Y-6.6594
X10.1476Y-7.2776
X10.1476Y-7.3425
X10.1476Y-7.4075
X10.1476Y-8.1142
X10.1476Y-8.2441
X10.1575Y-8.9862
X10.1772Y-9.1343
X10.2165Y-5.876
X10.2264Y-6.5354
X10.2362Y-6.5846
X10.2362Y-7.2933
X10.2461Y-7.3917
X10.2461Y-8.0807
X10.2461Y-9.0354
X10.2559Y-6.0138
X10.2657Y-6.3878
X10.2657Y-6.7815
X10.2756Y-7.1654
X10.2756Y-7.5295
X10.2756Y-7.8937
X10.2756Y-8.2776
X10.3051Y-8.0807
X10.315Y-9.0453
X10.3248Y-6.6929
X10.3346Y-9.6949
X10.3445Y-8.1299
X10.3543Y-5.4331
X10.3543Y-5.9055
X10.3543Y-7.4114
X10.3642Y-6.6535
X10.3642Y-7.3228
X10.374Y-6.5945
X10.4134Y-6.437
X10.4232Y-9.1339
X10.4277Y-9.0591
X10.4277Y-9.189
X10.4331Y-8.7303
X10.4429Y-9.5955
X10.4921Y-5.6683
X10.502Y-9.3602
X10.5118Y-5.7972
X10.5413Y-9.0354
X10.5512Y-7.1949
X10.5807Y-5.7677
X10.6004Y-6.5256
X10.6004Y-8.0512
X10.6201Y-7.2835
X10.6398Y-7.4512
X10.6398Y-8.1992
X10.6496Y-6.6933
X10.6594Y-5.9453
X10.6693Y-8.2776
X10.6988Y-9.0354
X10.7087Y-8.1004
X10.7185Y-7.1063
X10.7185Y-7.3524
X10.7185Y-8.1693
X10.7185Y-9.1339
X10.7283Y-6.5945
X10.7283Y-7.874
X10.7283Y-8.6024
X10.748Y-6.3484
X10.748Y-7.9429
X10.748Y-8.7303
X10.7776Y-6.437
X10.8169Y-6.6704
X10.8858Y-9.6949
X10.8957Y-6.0138
X10.8957Y-6.624
X10.8957Y-6.7579
X10.8957Y-7.3819
X10.8957Y-7.4508
X10.8957Y-7.5059
X10.8957Y-8.1299
X10.8957Y-8.2087
X10.8957Y-8.2539
X10.8986Y-5.8829
X10.9547Y-5.9646
X10.9646Y-6.0925
X10.9646Y-6.7067
X10.9744Y-6.6339
X10.9744Y-7.4606
X10.9744Y-8.1398
X11.0039Y-8.9764
X11.0138Y-6.5059
X11.0138Y-6.8701
X11.0138Y-7.3228
X11.0138Y-7.628
X11.0138Y-7.9921
X11.0138Y-8.3593
X11.0236Y-6.0856
X11.0236Y-9.1343
X11.0433Y-8.1004
X11.0531Y-6.7126
X11.0531Y-8.1398
X11.063Y-6.7815
X11.0925Y-6.0039
X11.0925Y-6.6634
X11.0925Y-7.5
X11.0925Y-9.0354
X11.1024Y-9.5571
X11.1122Y-7.4124
X11.122Y-5.6496
X11.122Y-6.7224
X11.1614Y-9.0354
X11.2106Y-5.8169
X11.2402Y-5.8465
X11.2697Y-9.0591
X11.2697Y-9.189
X11.2992Y-7.2933
X11.3091Y-5.8858
X11.3091Y-9.1437
X11.3533Y-9.0404
X11.3583Y-7.3711
X11.3583Y-8.1299
X11.3878Y-6.6339
X11.3927Y-8.2923
X11.3967Y-7.5404
X11.3976Y-6.7917
X11.4075Y-8.9173
X11.4567Y-7.2047
X11.4567Y-7.4409
X11.4567Y-7.9528
X11.4567Y-8.0413
X11.4665Y-6.6929
X11.4665Y-8.189
X11.4862Y-6.4469
X11.4961Y-5.9449
X11.498Y-6.0217
X11.5059Y-6.7618
X11.5059Y-9.1437
X11.5059Y-9.3504
X11.565Y-7.3819
X11.6339Y-8.937
X11.6437Y-5.9685
X11.6437Y-6.0984
X11.6437Y-8.2126
X11.6437Y-8.3425
X11.6535Y-6.7126
X11.6535Y-6.8504
X11.6535Y-7.4646
X11.6535Y-7.5945
X11.6732Y-8.622
X11.7323Y-8.9764
X11.7323Y-9.5955
X11.752Y-8.5925
X11.7717Y-9.0354
X11.811Y-9.5177
X11.8209Y-8.8878
X11.8799Y-7.9528
X11.8898Y-7.4705
X11.9193Y-8.2579
X11.936Y-9.1015
X11.9587Y-8.563
X11.9587Y-8.6516
X11.9587Y-8.8189
X11.9685Y-6.2106
X12.001Y-8.989
X12.0079Y-6.5945
X12.0866Y-6.8701
X12.0866Y-8.2579
X12.1161Y-7.2244
X12.1161Y-7.5131
X12.1161Y-7.8018
X12.1161Y-8.0906
X12.1161Y-8.7106
X12.126Y-6.998
X12.1457Y-8.5925
X12.2244Y-8.8681
X12.2441Y-6.0236
X12.2441Y-6.1713
X12.2933Y-6.2894
X12.3002Y-8.4913
X12.3228Y-5.748
X12.3228Y-5.935
X12.3327Y-8.435
X12.3524Y-9.3012
X12.3652Y-8.3788
X12.372Y-6.624
X12.372Y-6.8504
X12.4016Y-9.1339
X12.4016Y-9.7736
X12.4311Y-6.1614
X12.4598Y-9.2331
X12.5787Y-7.9626
X12.5955Y-9.5051
X12.628Y-9.1043
X12.6476Y-9.2028
X12.6575Y-9.3923
X12.6969Y-8.6614
X12.7264Y-8.4843
X12.7461Y-5.8661
X12.7461Y-6.0433
X12.7559Y-6.4074
X12.7559Y-6.565
X12.7756Y-9.5177
X12.7836Y-8.4744
X12.7953Y-7.3524
X12.7953Y-7.6575
X12.7953Y-7.9626
X12.7997Y-6.5595
X12.8051Y-6.7323
X12.8248Y-9.2815
X12.8543Y-5.7382
X12.874Y-10.1181
X12.9596Y-8.8653
X12.9921Y-9.4291
X13.002Y-8.6024
X13.0118Y-9.685
X13.0217Y-8.4744
X13.0246Y-8.7528
X13.061Y-9.5079
X13.1102Y-9.7146
X13.1496Y-9.5961
X13.1594Y-9.6583
X13.1988Y-9.872
X13.2579Y-9.4783
X13.2677Y-9.7441
X13.3169Y-8.6319
X13.3279Y-8.7882
X13.376Y-9.0551
X13.3858Y-8.8681
T2
X11.9079Y-5.9646
X11.9079Y-6.0646
X11.9079Y-6.1646
X11.9079Y-6.2646
X11.9079Y-6.3646
X11.9079Y-6.4646
X11.9079Y-6.5646
X11.9079Y-6.6646
X11.9079Y-6.7646
X11.9079Y-6.8646
X11.9079Y-6.9646
X11.9079Y-7.0646
X11.9098Y-5.8646
X12.0079Y-6.9646
X12.0079Y-7.0646
X12.0161Y-6.1327
X12.1079Y-7.0646
X12.2079Y-7.0646
X12.3079Y-7.0646
X12.3315Y-6.4961
X12.4079Y-7.0646
X12.4098Y-6.4961
X12.5079Y-5.8646
X12.5079Y-5.9646
X12.5079Y-6.0646
X12.5079Y-6.1646
X12.5079Y-6.2646
X12.5079Y-6.3646
X12.5079Y-6.4646
X12.5079Y-6.5646
X12.5079Y-6.6646
X12.5079Y-6.7646
X12.5079Y-6.8646
X12.5079Y-6.9646
X12.5079Y-7.0646
T3
X7.8937Y-5.9795
X7.8937Y-6.2795
X7.8937Y-7.4756
X7.8937Y-7.7756
X7.8937Y-8.2236
X7.8937Y-8.5236
X7.8937Y-8.9717
X7.8937Y-9.2717
X7.9035Y-6.7276
X7.9035Y-7.0276
X8.6417Y-7.4756
X8.6417Y-7.7756
X8.6417Y-8.2236
X8.6417Y-8.5236
X8.6417Y-8.9717
X8.6417Y-9.2717
X8.6516Y-5.9795
X8.6516Y-6.2795
X8.6516Y-6.7276
X8.6516Y-7.0276
X9.3898Y-8.0366
X9.3898Y-8.3366
X9.3996Y-5.7925
X9.3996Y-6.0925
X9.3996Y-6.5307
X9.3996Y-6.8307
X9.3996Y-7.2886
X9.3996Y-7.5886
X9.5866Y-8.9717
X9.5866Y-9.2717
X10.1476Y-5.6941
X10.1476Y-5.9941
X10.1476Y-6.4421
X10.1476Y-6.7421
X10.1476Y-7.1902
X10.1476Y-7.4902
X10.1476Y-8.0268
X10.1476Y-8.3268
X10.4277Y-8.9717
X10.4277Y-9.2717
X10.8957Y-5.7925
X10.8957Y-6.0925
X10.8957Y-6.5406
X10.8957Y-6.8406
X10.8957Y-7.2886
X10.8957Y-7.5886
X10.8957Y-8.0366
X10.8957Y-8.3366
X11.2697Y-8.9717
X11.2697Y-9.2717
X11.6437Y-5.8811
X11.6437Y-6.1811
X11.6437Y-8.1252
X11.6437Y-8.4252
X11.6535Y-6.6291
X11.6535Y-6.9291
X11.6535Y-7.3772
X11.6535Y-7.6772
X11.8947Y-9.1731
X12.0447Y-8.9133
X12.2589Y-8.5629
X12.4089Y-8.3031
X12.5541Y-9.5767
X12.7041Y-9.3169
X12.9183Y-8.9369
X13.0683Y-8.6771
T4
X12.3327Y-7.4854
X12.3327Y-7.5854
X12.3327Y-7.6854
X12.3327Y-7.7854
X12.3327Y-7.8854
T5
X7.1457Y-5.8858
X7.1457Y-9.6457
X9.7933Y-8.7598
X9.8031Y-5.4823
X11.4469Y-9.6457
X11.752Y-6.3287
X12.3327Y-7.2717
X12.3327Y-8.0965
X12.7461Y-6.8799
X12.9626Y-10.2165
X13.7008Y-8.9173
T4
G00X12.6102Y-5.9847
M15
G01X12.6102Y-6.0162
M16
G05
G00X12.6102Y-6.1029
M15
G01X12.6102Y-6.1344
M16
G05
G00X12.6102Y-6.2603
M15
G01X12.6102Y-6.2918
M16
G05
G00X12.685Y-6.3036
M15
G01X12.685Y-6.3351
M16
G05
G00X12.7913Y-6.3036
M15
G01X12.7913Y-6.3351
M16
G05
G00X12.8661Y-5.9847
M15
G01X12.8661Y-6.0162
M16
G05
G00X12.8661Y-6.1029
M15
G01X12.8661Y-6.1344
M16
G05
G00X12.8661Y-6.2603
M15
G01X12.8661Y-6.2918
M16
G05
M30
