%TF.GenerationSoftware,KiCad,Pcbnew,9.0.0*%
%TF.CreationDate,2025-08-26T18:36:53+02:00*%
%TF.ProjectId,keyboard,6b657962-6f61-4726-942e-6b696361645f,rev?*%
%TF.SameCoordinates,Original*%
%TF.FileFunction,Profile,NP*%
%FSLAX46Y46*%
G04 Gerber Fmt 4.6, Leading zero omitted, Abs format (unit mm)*
G04 Created by KiCad (PCBNEW 9.0.0) date 2025-08-26 18:36:53*
%MOMM*%
%LPD*%
G01*
G04 APERTURE LIST*
%TA.AperFunction,Profile*%
%ADD10C,0.100000*%
%TD*%
%TA.AperFunction,Profile*%
%ADD11C,0.200000*%
%TD*%
%TA.AperFunction,Profile*%
%ADD12C,0.120000*%
%TD*%
G04 APERTURE END LIST*
D10*
X234000000Y-137000000D02*
X266000000Y-137000000D01*
X179750000Y-146000000D02*
X214000000Y-146000000D01*
D11*
X179750000Y-248000000D02*
X179750000Y-146000000D01*
D10*
X341500000Y-227750000D02*
X319699520Y-266221434D01*
X214000000Y-146000000D02*
X234000000Y-137000000D01*
X341500000Y-227750000D02*
X328750000Y-220250000D01*
D11*
X288000000Y-144000000D02*
X328750000Y-144000000D01*
D10*
X328750000Y-144000000D02*
X328750000Y-220250000D01*
X287250000Y-248000000D02*
X319699520Y-266221434D01*
X266000000Y-137000000D02*
X288000000Y-144000000D01*
X179750000Y-248000000D02*
X287250000Y-248000000D01*
D12*
%TO.C,D25*%
X309277757Y-220199038D02*
X312222243Y-221899038D01*
X310504552Y-217674167D02*
X309204552Y-219925833D01*
X312495448Y-221825833D02*
X313795448Y-219574167D01*
X313722243Y-219300962D02*
X310777757Y-217600962D01*
X309277757Y-220199038D02*
G75*
G02*
X309204552Y-219925833I100000J173205D01*
G01*
X310504552Y-217674167D02*
G75*
G02*
X310777757Y-217600962I173205J-100000D01*
G01*
X312495448Y-221825833D02*
G75*
G02*
X312222243Y-221899038I-173205J100001D01*
G01*
X313722243Y-219300962D02*
G75*
G02*
X313795448Y-219574167I-100001J-173205D01*
G01*
%TO.C,D2*%
X266100000Y-147950000D02*
X266100000Y-150550000D01*
X266300000Y-150750000D02*
X269700000Y-150750000D01*
X269700000Y-147750000D02*
X266300000Y-147750000D01*
X269900000Y-150550000D02*
X269900000Y-147950000D01*
X266100000Y-147950000D02*
G75*
G02*
X266300000Y-147750000I200000J0D01*
G01*
X266300000Y-150750000D02*
G75*
G02*
X266100000Y-150550000I0J200000D01*
G01*
X269700000Y-147750000D02*
G75*
G02*
X269900000Y-147950000I-1J-200001D01*
G01*
X269900000Y-150550000D02*
G75*
G02*
X269700000Y-150750000I-200001J1D01*
G01*
%TO.C,D27*%
X317027757Y-245949038D02*
X319972243Y-247649038D01*
X318254552Y-243424167D02*
X316954552Y-245675833D01*
X320245448Y-247575833D02*
X321545448Y-245324167D01*
X321472243Y-245050962D02*
X318527757Y-243350962D01*
X317027757Y-245949038D02*
G75*
G02*
X316954552Y-245675833I100000J173205D01*
G01*
X318254552Y-243424167D02*
G75*
G02*
X318527757Y-243350962I173205J-100000D01*
G01*
X320245448Y-247575833D02*
G75*
G02*
X319972243Y-247649038I-173205J100001D01*
G01*
X321472243Y-245050962D02*
G75*
G02*
X321545448Y-245324167I-100001J-173205D01*
G01*
%TO.C,D33*%
X189850000Y-228950000D02*
X189850000Y-231550000D01*
X190050000Y-231750000D02*
X193450000Y-231750000D01*
X193450000Y-228750000D02*
X190050000Y-228750000D01*
X193650000Y-231550000D02*
X193650000Y-228950000D01*
X189850000Y-228950000D02*
G75*
G02*
X190050000Y-228750000I200000J0D01*
G01*
X190050000Y-231750000D02*
G75*
G02*
X189850000Y-231550000I0J200000D01*
G01*
X193450000Y-228750000D02*
G75*
G02*
X193650000Y-228950000I-1J-200001D01*
G01*
X193650000Y-231550000D02*
G75*
G02*
X193450000Y-231750000I-200001J1D01*
G01*
%TO.C,D28*%
X300027757Y-236199038D02*
X302972243Y-237899038D01*
X301254552Y-233674167D02*
X299954552Y-235925833D01*
X303245448Y-237825833D02*
X304545448Y-235574167D01*
X304472243Y-235300962D02*
X301527757Y-233600962D01*
X300027757Y-236199038D02*
G75*
G02*
X299954552Y-235925833I100000J173205D01*
G01*
X301254552Y-233674167D02*
G75*
G02*
X301527757Y-233600962I173205J-100000D01*
G01*
X303245448Y-237825833D02*
G75*
G02*
X302972243Y-237899038I-173205J100001D01*
G01*
X304472243Y-235300962D02*
G75*
G02*
X304545448Y-235574167I-100001J-173205D01*
G01*
%TO.C,D32*%
X208850000Y-228950000D02*
X208850000Y-231550000D01*
X209050000Y-231750000D02*
X212450000Y-231750000D01*
X212450000Y-228750000D02*
X209050000Y-228750000D01*
X212650000Y-231550000D02*
X212650000Y-228950000D01*
X208850000Y-228950000D02*
G75*
G02*
X209050000Y-228750000I200000J0D01*
G01*
X209050000Y-231750000D02*
G75*
G02*
X208850000Y-231550000I0J200000D01*
G01*
X212450000Y-228750000D02*
G75*
G02*
X212650000Y-228950000I-1J-200001D01*
G01*
X212650000Y-231550000D02*
G75*
G02*
X212450000Y-231750000I-200001J1D01*
G01*
%TO.C,D31*%
X232600000Y-228950000D02*
X232600000Y-231550000D01*
X232800000Y-231750000D02*
X236200000Y-231750000D01*
X236200000Y-228750000D02*
X232800000Y-228750000D01*
X236400000Y-231550000D02*
X236400000Y-228950000D01*
X232600000Y-228950000D02*
G75*
G02*
X232800000Y-228750000I200000J0D01*
G01*
X232800000Y-231750000D02*
G75*
G02*
X232600000Y-231550000I0J200000D01*
G01*
X236200000Y-228750000D02*
G75*
G02*
X236400000Y-228950000I-1J-200001D01*
G01*
X236400000Y-231550000D02*
G75*
G02*
X236200000Y-231750000I-200001J1D01*
G01*
%TO.C,D3*%
X247100000Y-145700000D02*
X247100000Y-148300000D01*
X247300000Y-148500000D02*
X250700000Y-148500000D01*
X250700000Y-145500000D02*
X247300000Y-145500000D01*
X250900000Y-148300000D02*
X250900000Y-145700000D01*
X247100000Y-145700000D02*
G75*
G02*
X247300000Y-145500000I200000J0D01*
G01*
X247300000Y-148500000D02*
G75*
G02*
X247100000Y-148300000I0J200000D01*
G01*
X250700000Y-145500000D02*
G75*
G02*
X250900000Y-145700000I-1J-200001D01*
G01*
X250900000Y-148300000D02*
G75*
G02*
X250700000Y-148500000I-200001J1D01*
G01*
%TO.C,D12*%
X285100000Y-169450000D02*
X285100000Y-172050000D01*
X285300000Y-172250000D02*
X288700000Y-172250000D01*
X288700000Y-169250000D02*
X285300000Y-169250000D01*
X288900000Y-172050000D02*
X288900000Y-169450000D01*
X285100000Y-169450000D02*
G75*
G02*
X285300000Y-169250000I200000J0D01*
G01*
X285300000Y-172250000D02*
G75*
G02*
X285100000Y-172050000I0J200000D01*
G01*
X288700000Y-169250000D02*
G75*
G02*
X288900000Y-169450000I-1J-200001D01*
G01*
X288900000Y-172050000D02*
G75*
G02*
X288700000Y-172250000I-200001J1D01*
G01*
%TO.C,D15*%
X247100000Y-183700000D02*
X247100000Y-186300000D01*
X247300000Y-186500000D02*
X250700000Y-186500000D01*
X250700000Y-183500000D02*
X247300000Y-183500000D01*
X250900000Y-186300000D02*
X250900000Y-183700000D01*
X247100000Y-183700000D02*
G75*
G02*
X247300000Y-183500000I200000J0D01*
G01*
X247300000Y-186500000D02*
G75*
G02*
X247100000Y-186300000I0J200000D01*
G01*
X250700000Y-183500000D02*
G75*
G02*
X250900000Y-183700000I-1J-200001D01*
G01*
X250900000Y-186300000D02*
G75*
G02*
X250700000Y-186500000I-200001J1D01*
G01*
%TO.C,D1*%
X285100000Y-150450000D02*
X285100000Y-153050000D01*
X285300000Y-153250000D02*
X288700000Y-153250000D01*
X288700000Y-150250000D02*
X285300000Y-150250000D01*
X288900000Y-153050000D02*
X288900000Y-150450000D01*
X285100000Y-150450000D02*
G75*
G02*
X285300000Y-150250000I200000J0D01*
G01*
X285300000Y-153250000D02*
G75*
G02*
X285100000Y-153050000I0J200000D01*
G01*
X288700000Y-150250000D02*
G75*
G02*
X288900000Y-150450000I-1J-200001D01*
G01*
X288900000Y-153050000D02*
G75*
G02*
X288700000Y-153250000I-200001J1D01*
G01*
%TO.C,D16*%
X227850000Y-186200000D02*
X227850000Y-188800000D01*
X228050000Y-189000000D02*
X231450000Y-189000000D01*
X231450000Y-186000000D02*
X228050000Y-186000000D01*
X231650000Y-188800000D02*
X231650000Y-186200000D01*
X227850000Y-186200000D02*
G75*
G02*
X228050000Y-186000000I200000J0D01*
G01*
X228050000Y-189000000D02*
G75*
G02*
X227850000Y-188800000I0J200000D01*
G01*
X231450000Y-186000000D02*
G75*
G02*
X231650000Y-186200000I-1J-200001D01*
G01*
X231650000Y-188800000D02*
G75*
G02*
X231450000Y-189000000I-200001J1D01*
G01*
%TO.C,D18*%
X189600000Y-190950000D02*
X189600000Y-193550000D01*
X189800000Y-193750000D02*
X193200000Y-193750000D01*
X193200000Y-190750000D02*
X189800000Y-190750000D01*
X193400000Y-193550000D02*
X193400000Y-190950000D01*
X189600000Y-190950000D02*
G75*
G02*
X189800000Y-190750000I200000J0D01*
G01*
X189800000Y-193750000D02*
G75*
G02*
X189600000Y-193550000I0J200000D01*
G01*
X193200000Y-190750000D02*
G75*
G02*
X193400000Y-190950000I-1J-200001D01*
G01*
X193400000Y-193550000D02*
G75*
G02*
X193200000Y-193750000I-200001J1D01*
G01*
%TO.C,D29*%
X275775000Y-228950000D02*
X275775000Y-231550000D01*
X275975000Y-231750000D02*
X279375000Y-231750000D01*
X279375000Y-228750000D02*
X275975000Y-228750000D01*
X279575000Y-231550000D02*
X279575000Y-228950000D01*
X275775000Y-228950000D02*
G75*
G02*
X275975000Y-228750000I200000J0D01*
G01*
X275975000Y-231750000D02*
G75*
G02*
X275775000Y-231550000I0J200000D01*
G01*
X279375000Y-228750000D02*
G75*
G02*
X279575000Y-228950000I-1J-200001D01*
G01*
X279575000Y-231550000D02*
G75*
G02*
X279375000Y-231750000I-200001J1D01*
G01*
%TO.C,D13*%
X285100000Y-188450000D02*
X285100000Y-191050000D01*
X285300000Y-191250000D02*
X288700000Y-191250000D01*
X288700000Y-188250000D02*
X285300000Y-188250000D01*
X288900000Y-191050000D02*
X288900000Y-188450000D01*
X285100000Y-188450000D02*
G75*
G02*
X285300000Y-188250000I200000J0D01*
G01*
X285300000Y-191250000D02*
G75*
G02*
X285100000Y-191050000I0J200000D01*
G01*
X288700000Y-188250000D02*
G75*
G02*
X288900000Y-188450000I-1J-200001D01*
G01*
X288900000Y-191050000D02*
G75*
G02*
X288700000Y-191250000I-200001J1D01*
G01*
%TO.C,D6*%
X190100000Y-152700000D02*
X190100000Y-155300000D01*
X190300000Y-155500000D02*
X193700000Y-155500000D01*
X193700000Y-152500000D02*
X190300000Y-152500000D01*
X193900000Y-155300000D02*
X193900000Y-152700000D01*
X190100000Y-152700000D02*
G75*
G02*
X190300000Y-152500000I200000J0D01*
G01*
X190300000Y-155500000D02*
G75*
G02*
X190100000Y-155300000I0J200000D01*
G01*
X193700000Y-152500000D02*
G75*
G02*
X193900000Y-152700000I-1J-200001D01*
G01*
X193900000Y-155300000D02*
G75*
G02*
X193700000Y-155500000I-200001J1D01*
G01*
%TO.C,D21*%
X227850000Y-205200000D02*
X227850000Y-207800000D01*
X228050000Y-208000000D02*
X231450000Y-208000000D01*
X231450000Y-205000000D02*
X228050000Y-205000000D01*
X231650000Y-207800000D02*
X231650000Y-205200000D01*
X227850000Y-205200000D02*
G75*
G02*
X228050000Y-205000000I200000J0D01*
G01*
X228050000Y-208000000D02*
G75*
G02*
X227850000Y-207800000I0J200000D01*
G01*
X231450000Y-205000000D02*
G75*
G02*
X231650000Y-205200000I-1J-200001D01*
G01*
X231650000Y-207800000D02*
G75*
G02*
X231450000Y-208000000I-200001J1D01*
G01*
%TO.C,D4*%
X228100000Y-147950000D02*
X228100000Y-150550000D01*
X228300000Y-150750000D02*
X231700000Y-150750000D01*
X231700000Y-147750000D02*
X228300000Y-147750000D01*
X231900000Y-150550000D02*
X231900000Y-147950000D01*
X228100000Y-147950000D02*
G75*
G02*
X228300000Y-147750000I200000J0D01*
G01*
X228300000Y-150750000D02*
G75*
G02*
X228100000Y-150550000I0J200000D01*
G01*
X231700000Y-147750000D02*
G75*
G02*
X231900000Y-147950000I-1J-200001D01*
G01*
X231900000Y-150550000D02*
G75*
G02*
X231700000Y-150750000I-200001J1D01*
G01*
%TO.C,D26*%
X326027757Y-229949038D02*
X328972243Y-231649038D01*
X327254552Y-227424167D02*
X325954552Y-229675833D01*
X329245448Y-231575833D02*
X330545448Y-229324167D01*
X330472243Y-229050962D02*
X327527757Y-227350962D01*
X326027757Y-229949038D02*
G75*
G02*
X325954552Y-229675833I100000J173205D01*
G01*
X327254552Y-227424167D02*
G75*
G02*
X327527757Y-227350962I173205J-100000D01*
G01*
X329245448Y-231575833D02*
G75*
G02*
X328972243Y-231649038I-173205J100001D01*
G01*
X330472243Y-229050962D02*
G75*
G02*
X330545448Y-229324167I-100001J-173205D01*
G01*
%TO.C,D20*%
X208850000Y-209950000D02*
X208850000Y-212550000D01*
X209050000Y-212750000D02*
X212450000Y-212750000D01*
X212450000Y-209750000D02*
X209050000Y-209750000D01*
X212650000Y-212550000D02*
X212650000Y-209950000D01*
X208850000Y-209950000D02*
G75*
G02*
X209050000Y-209750000I200000J0D01*
G01*
X209050000Y-212750000D02*
G75*
G02*
X208850000Y-212550000I0J200000D01*
G01*
X212450000Y-209750000D02*
G75*
G02*
X212650000Y-209950000I-1J-200001D01*
G01*
X212650000Y-212550000D02*
G75*
G02*
X212450000Y-212750000I-200001J1D01*
G01*
%TO.C,D17*%
X208850000Y-190950000D02*
X208850000Y-193550000D01*
X209050000Y-193750000D02*
X212450000Y-193750000D01*
X212450000Y-190750000D02*
X209050000Y-190750000D01*
X212650000Y-193550000D02*
X212650000Y-190950000D01*
X208850000Y-190950000D02*
G75*
G02*
X209050000Y-190750000I200000J0D01*
G01*
X209050000Y-193750000D02*
G75*
G02*
X208850000Y-193550000I0J200000D01*
G01*
X212450000Y-190750000D02*
G75*
G02*
X212650000Y-190950000I-1J-200001D01*
G01*
X212650000Y-193550000D02*
G75*
G02*
X212450000Y-193750000I-200001J1D01*
G01*
%TO.C,D5*%
X209100000Y-152700000D02*
X209100000Y-155300000D01*
X209300000Y-155500000D02*
X212700000Y-155500000D01*
X212700000Y-152500000D02*
X209300000Y-152500000D01*
X212900000Y-155300000D02*
X212900000Y-152700000D01*
X209100000Y-152700000D02*
G75*
G02*
X209300000Y-152500000I200000J0D01*
G01*
X209300000Y-155500000D02*
G75*
G02*
X209100000Y-155300000I0J200000D01*
G01*
X212700000Y-152500000D02*
G75*
G02*
X212900000Y-152700000I-1J-200001D01*
G01*
X212900000Y-155300000D02*
G75*
G02*
X212700000Y-155500000I-200001J1D01*
G01*
%TO.C,D11*%
X266100000Y-166950000D02*
X266100000Y-169550000D01*
X266300000Y-169750000D02*
X269700000Y-169750000D01*
X269700000Y-166750000D02*
X266300000Y-166750000D01*
X269900000Y-169550000D02*
X269900000Y-166950000D01*
X266100000Y-166950000D02*
G75*
G02*
X266300000Y-166750000I200000J0D01*
G01*
X266300000Y-169750000D02*
G75*
G02*
X266100000Y-169550000I0J200000D01*
G01*
X269700000Y-166750000D02*
G75*
G02*
X269900000Y-166950000I-1J-200001D01*
G01*
X269900000Y-169550000D02*
G75*
G02*
X269700000Y-169750000I-200001J1D01*
G01*
%TO.C,D30*%
X254100000Y-228950000D02*
X254100000Y-231550000D01*
X254300000Y-231750000D02*
X257700000Y-231750000D01*
X257700000Y-228750000D02*
X254300000Y-228750000D01*
X257900000Y-231550000D02*
X257900000Y-228950000D01*
X254100000Y-228950000D02*
G75*
G02*
X254300000Y-228750000I200000J0D01*
G01*
X254300000Y-231750000D02*
G75*
G02*
X254100000Y-231550000I0J200000D01*
G01*
X257700000Y-228750000D02*
G75*
G02*
X257900000Y-228950000I-1J-200001D01*
G01*
X257900000Y-231550000D02*
G75*
G02*
X257700000Y-231750000I-200001J1D01*
G01*
%TO.C,D8*%
X209100000Y-171700000D02*
X209100000Y-174300000D01*
X209300000Y-174500000D02*
X212700000Y-174500000D01*
X212700000Y-171500000D02*
X209300000Y-171500000D01*
X212900000Y-174300000D02*
X212900000Y-171700000D01*
X209100000Y-171700000D02*
G75*
G02*
X209300000Y-171500000I200000J0D01*
G01*
X209300000Y-174500000D02*
G75*
G02*
X209100000Y-174300000I0J200000D01*
G01*
X212700000Y-171500000D02*
G75*
G02*
X212900000Y-171700000I-1J-200001D01*
G01*
X212900000Y-174300000D02*
G75*
G02*
X212700000Y-174500000I-200001J1D01*
G01*
%TO.C,D7*%
X189850000Y-171700000D02*
X189850000Y-174300000D01*
X190050000Y-174500000D02*
X193450000Y-174500000D01*
X193450000Y-171500000D02*
X190050000Y-171500000D01*
X193650000Y-174300000D02*
X193650000Y-171700000D01*
X189850000Y-171700000D02*
G75*
G02*
X190050000Y-171500000I200000J0D01*
G01*
X190050000Y-174500000D02*
G75*
G02*
X189850000Y-174300000I0J200000D01*
G01*
X193450000Y-171500000D02*
G75*
G02*
X193650000Y-171700000I-1J-200001D01*
G01*
X193650000Y-174300000D02*
G75*
G02*
X193450000Y-174500000I-200001J1D01*
G01*
%TO.C,D10*%
X247100000Y-164700000D02*
X247100000Y-167300000D01*
X247300000Y-167500000D02*
X250700000Y-167500000D01*
X250700000Y-164500000D02*
X247300000Y-164500000D01*
X250900000Y-167300000D02*
X250900000Y-164700000D01*
X247100000Y-164700000D02*
G75*
G02*
X247300000Y-164500000I200000J0D01*
G01*
X247300000Y-167500000D02*
G75*
G02*
X247100000Y-167300000I0J200000D01*
G01*
X250700000Y-164500000D02*
G75*
G02*
X250900000Y-164700000I-1J-200001D01*
G01*
X250900000Y-167300000D02*
G75*
G02*
X250700000Y-167500000I-200001J1D01*
G01*
%TO.C,D22*%
X247100000Y-202700000D02*
X247100000Y-205300000D01*
X247300000Y-205500000D02*
X250700000Y-205500000D01*
X250700000Y-202500000D02*
X247300000Y-202500000D01*
X250900000Y-205300000D02*
X250900000Y-202700000D01*
X247100000Y-202700000D02*
G75*
G02*
X247300000Y-202500000I200000J0D01*
G01*
X247300000Y-205500000D02*
G75*
G02*
X247100000Y-205300000I0J200000D01*
G01*
X250700000Y-202500000D02*
G75*
G02*
X250900000Y-202700000I-1J-200001D01*
G01*
X250900000Y-205300000D02*
G75*
G02*
X250700000Y-205500000I-200001J1D01*
G01*
%TO.C,D14*%
X266100000Y-186200000D02*
X266100000Y-188800000D01*
X266300000Y-189000000D02*
X269700000Y-189000000D01*
X269700000Y-186000000D02*
X266300000Y-186000000D01*
X269900000Y-188800000D02*
X269900000Y-186200000D01*
X266100000Y-186200000D02*
G75*
G02*
X266300000Y-186000000I200000J0D01*
G01*
X266300000Y-189000000D02*
G75*
G02*
X266100000Y-188800000I0J200000D01*
G01*
X269700000Y-186000000D02*
G75*
G02*
X269900000Y-186200000I-1J-200001D01*
G01*
X269900000Y-188800000D02*
G75*
G02*
X269700000Y-189000000I-200001J1D01*
G01*
%TO.C,D9*%
X228100000Y-166950000D02*
X228100000Y-169550000D01*
X228300000Y-169750000D02*
X231700000Y-169750000D01*
X231700000Y-166750000D02*
X228300000Y-166750000D01*
X231900000Y-169550000D02*
X231900000Y-166950000D01*
X228100000Y-166950000D02*
G75*
G02*
X228300000Y-166750000I200000J0D01*
G01*
X228300000Y-169750000D02*
G75*
G02*
X228100000Y-169550000I0J200000D01*
G01*
X231700000Y-166750000D02*
G75*
G02*
X231900000Y-166950000I-1J-200001D01*
G01*
X231900000Y-169550000D02*
G75*
G02*
X231700000Y-169750000I-200001J1D01*
G01*
%TO.C,D24*%
X285100000Y-207450000D02*
X285100000Y-210050000D01*
X285300000Y-210250000D02*
X288700000Y-210250000D01*
X288700000Y-207250000D02*
X285300000Y-207250000D01*
X288900000Y-210050000D02*
X288900000Y-207450000D01*
X285100000Y-207450000D02*
G75*
G02*
X285300000Y-207250000I200000J0D01*
G01*
X285300000Y-210250000D02*
G75*
G02*
X285100000Y-210050000I0J200000D01*
G01*
X288700000Y-207250000D02*
G75*
G02*
X288900000Y-207450000I-1J-200001D01*
G01*
X288900000Y-210050000D02*
G75*
G02*
X288700000Y-210250000I-200001J1D01*
G01*
%TO.C,D19*%
X189775000Y-209950000D02*
X189775000Y-212550000D01*
X189975000Y-212750000D02*
X193375000Y-212750000D01*
X193375000Y-209750000D02*
X189975000Y-209750000D01*
X193575000Y-212550000D02*
X193575000Y-209950000D01*
X189775000Y-209950000D02*
G75*
G02*
X189975000Y-209750000I200000J0D01*
G01*
X189975000Y-212750000D02*
G75*
G02*
X189775000Y-212550000I0J200000D01*
G01*
X193375000Y-209750000D02*
G75*
G02*
X193575000Y-209950000I-1J-200001D01*
G01*
X193575000Y-212550000D02*
G75*
G02*
X193375000Y-212750000I-200001J1D01*
G01*
%TO.C,D23*%
X265850000Y-205200000D02*
X265850000Y-207800000D01*
X266050000Y-208000000D02*
X269450000Y-208000000D01*
X269450000Y-205000000D02*
X266050000Y-205000000D01*
X269650000Y-207800000D02*
X269650000Y-205200000D01*
X265850000Y-205200000D02*
G75*
G02*
X266050000Y-205000000I200000J0D01*
G01*
X266050000Y-208000000D02*
G75*
G02*
X265850000Y-207800000I0J200000D01*
G01*
X269450000Y-205000000D02*
G75*
G02*
X269650000Y-205200000I-1J-200001D01*
G01*
X269650000Y-207800000D02*
G75*
G02*
X269450000Y-208000000I-200001J1D01*
G01*
%TD*%
M02*
