%TF.GenerationSoftware,KiCad,Pcbnew,9.0.0*%
%TF.CreationDate,2025-08-26T18:36:53+02:00*%
%TF.ProjectId,keyboard,6b657962-6f61-4726-942e-6b696361645f,rev?*%
%TF.SameCoordinates,Original*%
%TF.FileFunction,Soldermask,Bot*%
%TF.FilePolarity,Negative*%
%FSLAX46Y46*%
G04 Gerber Fmt 4.6, Leading zero omitted, Abs format (unit mm)*
G04 Created by KiCad (PCBNEW 9.0.0) date 2025-08-26 18:36:53*
%MOMM*%
%LPD*%
G01*
G04 APERTURE LIST*
G04 Aperture macros list*
%AMRoundRect*
0 Rectangle with rounded corners*
0 $1 Rounding radius*
0 $2 $3 $4 $5 $6 $7 $8 $9 X,Y pos of 4 corners*
0 Add a 4 corners polygon primitive as box body*
4,1,4,$2,$3,$4,$5,$6,$7,$8,$9,$2,$3,0*
0 Add four circle primitives for the rounded corners*
1,1,$1+$1,$2,$3*
1,1,$1+$1,$4,$5*
1,1,$1+$1,$6,$7*
1,1,$1+$1,$8,$9*
0 Add four rect primitives between the rounded corners*
20,1,$1+$1,$2,$3,$4,$5,0*
20,1,$1+$1,$4,$5,$6,$7,0*
20,1,$1+$1,$6,$7,$8,$9,0*
20,1,$1+$1,$8,$9,$2,$3,0*%
%AMHorizOval*
0 Thick line with rounded ends*
0 $1 width*
0 $2 $3 position (X,Y) of the first rounded end (center of the circle)*
0 $4 $5 position (X,Y) of the second rounded end (center of the circle)*
0 Add line between two ends*
20,1,$1,$2,$3,$4,$5,0*
0 Add two circle primitives to create the rounded ends*
1,1,$1,$2,$3*
1,1,$1,$4,$5*%
%AMRotRect*
0 Rectangle, with rotation*
0 The origin of the aperture is its center*
0 $1 length*
0 $2 width*
0 $3 Rotation angle, in degrees counterclockwise*
0 Add horizontal line*
21,1,$1,$2,0,0,$3*%
G04 Aperture macros list end*
%ADD10C,3.800000*%
%ADD11C,1.701800*%
%ADD12C,3.000000*%
%ADD13C,3.987800*%
%ADD14R,2.550000X2.500000*%
%ADD15C,1.300000*%
%ADD16O,1.800000X2.500000*%
%ADD17R,1.700000X1.700000*%
%ADD18O,1.700000X1.700000*%
%ADD19C,1.524000*%
%ADD20R,1.600000X1.600000*%
%ADD21RoundRect,0.225000X-0.375000X0.225000X-0.375000X-0.225000X0.375000X-0.225000X0.375000X0.225000X0*%
%ADD22O,1.600000X1.600000*%
%ADD23RotRect,2.550000X2.500000X150.000000*%
%ADD24RotRect,1.600000X1.600000X240.000000*%
%ADD25RoundRect,0.225000X-0.212260X0.382356X-0.437260X-0.007356X0.212260X-0.382356X0.437260X0.007356X0*%
%ADD26HorizOval,1.600000X0.000000X0.000000X0.000000X0.000000X0*%
%ADD27RotRect,1.450000X0.820000X150.000000*%
%ADD28RoundRect,0.205000X0.552833X-0.082465X-0.347833X0.437535X-0.552833X0.082465X0.347833X-0.437535X0*%
%ADD29R,1.450000X0.820000*%
%ADD30RoundRect,0.205000X0.520000X0.205000X-0.520000X0.205000X-0.520000X-0.205000X0.520000X-0.205000X0*%
G04 APERTURE END LIST*
D10*
%TO.C,H6*%
X182500000Y-148750000D03*
%TD*%
%TO.C,H4*%
X182500000Y-245500000D03*
%TD*%
D11*
%TO.C,K_3*%
X292055000Y-156700000D03*
D12*
X290785000Y-159240000D03*
X289625000Y-161780000D03*
D13*
X286975000Y-156700000D03*
D12*
X284435000Y-161780000D03*
X283275000Y-159240000D03*
D11*
X281895000Y-156700000D03*
D14*
X280685000Y-161780000D03*
X294535000Y-159240000D03*
%TD*%
D10*
%TO.C,H8*%
X298500000Y-160750000D03*
%TD*%
%TO.C,H10*%
X313250000Y-213000000D03*
%TD*%
D15*
%TO.C,J1*%
X322600000Y-147962500D03*
X322600000Y-154962500D03*
X324500000Y-147962500D03*
X324500000Y-154962500D03*
D16*
X320300000Y-156162500D03*
X326800000Y-156162500D03*
X320300000Y-152162500D03*
X326800000Y-152162500D03*
X320300000Y-149162500D03*
X326800000Y-149162500D03*
X322200000Y-157262500D03*
X324900000Y-157262500D03*
%TD*%
D17*
%TO.C,J3*%
X305670000Y-205750000D03*
D18*
X308210000Y-205750000D03*
X310750000Y-205750000D03*
X313290000Y-205750000D03*
X315830000Y-205750000D03*
X318370000Y-205750000D03*
X320910000Y-205750000D03*
%TD*%
D10*
%TO.C,H5*%
X338000000Y-228750000D03*
%TD*%
%TO.C,H3*%
X248750000Y-222500000D03*
%TD*%
D19*
%TO.C,U1*%
X302460000Y-148275000D03*
X302460000Y-150815000D03*
X302460000Y-158435000D03*
X302460000Y-160975000D03*
X317700000Y-155895000D03*
X302460000Y-163515000D03*
X302460000Y-166055000D03*
X317700000Y-148275000D03*
X302460000Y-168595000D03*
X302460000Y-171135000D03*
X302460000Y-173675000D03*
X302460000Y-176215000D03*
X302510000Y-145735000D03*
X317700000Y-145735000D03*
X305000000Y-176215000D03*
X307540000Y-176215000D03*
X310080000Y-176215000D03*
X312620000Y-176215000D03*
X315160000Y-176215000D03*
X313220000Y-161775000D03*
X317700000Y-171135000D03*
X317700000Y-176215000D03*
X317700000Y-168595000D03*
X317700000Y-173675000D03*
X315210000Y-161775000D03*
X305000000Y-173675000D03*
X317700000Y-166055000D03*
X317700000Y-163515000D03*
X317700000Y-160975000D03*
X317700000Y-158435000D03*
X305210000Y-152545000D03*
X302460000Y-153355000D03*
X302460000Y-155895000D03*
X317700000Y-150815000D03*
X317700000Y-153355000D03*
%TD*%
D10*
%TO.C,H2*%
X323750000Y-174750000D03*
%TD*%
%TO.C,H1*%
X249000000Y-139250000D03*
%TD*%
%TO.C,H11*%
X284500000Y-245500000D03*
%TD*%
D17*
%TO.C,J2*%
X305670000Y-184750000D03*
D18*
X308210000Y-184750000D03*
X310750000Y-184750000D03*
X313290000Y-184750000D03*
X315830000Y-184750000D03*
X318370000Y-184750000D03*
X320910000Y-184750000D03*
%TD*%
D10*
%TO.C,H7*%
X318750000Y-262750000D03*
%TD*%
D11*
%TO.C,K_0*%
X243795000Y-151937500D03*
D12*
X245065000Y-154477500D03*
X246225000Y-157017500D03*
D13*
X248875000Y-151937500D03*
D12*
X251415000Y-157017500D03*
X252575000Y-154477500D03*
D11*
X253955000Y-151937500D03*
D14*
X242475000Y-157017500D03*
X256325000Y-154477500D03*
%TD*%
D20*
%TO.C,D_0*%
X257750000Y-144630000D03*
D21*
X257750000Y-146850000D03*
X257750000Y-150150000D03*
D22*
X257750000Y-152250000D03*
%TD*%
D11*
%TO.C,K_1*%
X224745000Y-154318750D03*
D12*
X226015000Y-156858750D03*
X227175000Y-159398750D03*
D13*
X229825000Y-154318750D03*
D12*
X232365000Y-159398750D03*
X233525000Y-156858750D03*
D11*
X234905000Y-154318750D03*
D14*
X223425000Y-159398750D03*
X237275000Y-156858750D03*
%TD*%
D20*
%TO.C,D_1*%
X238750000Y-147130000D03*
D21*
X238750000Y-149350000D03*
X238750000Y-152650000D03*
D22*
X238750000Y-154750000D03*
%TD*%
D11*
%TO.C,K_2*%
X262845000Y-154318750D03*
D12*
X264115000Y-156858750D03*
X265275000Y-159398750D03*
D13*
X267925000Y-154318750D03*
D12*
X270465000Y-159398750D03*
X271625000Y-156858750D03*
D11*
X273005000Y-154318750D03*
D14*
X261525000Y-159398750D03*
X275375000Y-156858750D03*
%TD*%
D20*
%TO.C,D_2*%
X276750000Y-147130000D03*
D21*
X276750000Y-149350000D03*
X276750000Y-152650000D03*
D22*
X276750000Y-154750000D03*
%TD*%
D20*
%TO.C,D_3*%
X295750000Y-149380000D03*
D21*
X295750000Y-151600000D03*
X295750000Y-154900000D03*
D22*
X295750000Y-157000000D03*
%TD*%
D11*
%TO.C,K_4*%
X186645000Y-159081250D03*
D12*
X187915000Y-161621250D03*
X189075000Y-164161250D03*
D13*
X191725000Y-159081250D03*
D12*
X194265000Y-164161250D03*
X195425000Y-161621250D03*
D11*
X196805000Y-159081250D03*
D14*
X185325000Y-164161250D03*
X199175000Y-161621250D03*
%TD*%
D20*
%TO.C,D_4*%
X200500000Y-151880000D03*
D21*
X200500000Y-154100000D03*
X200500000Y-157400000D03*
D22*
X200500000Y-159500000D03*
%TD*%
D11*
%TO.C,K_5*%
X205695000Y-159081250D03*
D12*
X206965000Y-161621250D03*
X208125000Y-164161250D03*
D13*
X210775000Y-159081250D03*
D12*
X213315000Y-164161250D03*
X214475000Y-161621250D03*
D11*
X215855000Y-159081250D03*
D14*
X204375000Y-164161250D03*
X218225000Y-161621250D03*
%TD*%
D20*
%TO.C,D_5*%
X219750000Y-151880000D03*
D21*
X219750000Y-154100000D03*
X219750000Y-157400000D03*
D22*
X219750000Y-159500000D03*
%TD*%
D11*
%TO.C,K_6*%
X243795000Y-170987500D03*
D12*
X245065000Y-173527500D03*
X246225000Y-176067500D03*
D13*
X248875000Y-170987500D03*
D12*
X251415000Y-176067500D03*
X252575000Y-173527500D03*
D11*
X253955000Y-170987500D03*
D14*
X242475000Y-176067500D03*
X256325000Y-173527500D03*
%TD*%
D20*
%TO.C,D_6*%
X257750000Y-163630000D03*
D21*
X257750000Y-165850000D03*
X257750000Y-169150000D03*
D22*
X257750000Y-171250000D03*
%TD*%
D11*
%TO.C,K_7*%
X224745000Y-173368750D03*
D12*
X226015000Y-175908750D03*
X227175000Y-178448750D03*
D13*
X229825000Y-173368750D03*
D12*
X232365000Y-178448750D03*
X233525000Y-175908750D03*
D11*
X234905000Y-173368750D03*
D14*
X223425000Y-178448750D03*
X237275000Y-175908750D03*
%TD*%
D20*
%TO.C,D_7*%
X238750000Y-165880000D03*
D21*
X238750000Y-168100000D03*
X238750000Y-171400000D03*
D22*
X238750000Y-173500000D03*
%TD*%
D11*
%TO.C,K_8*%
X262845000Y-173368750D03*
D12*
X264115000Y-175908750D03*
X265275000Y-178448750D03*
D13*
X267925000Y-173368750D03*
D12*
X270465000Y-178448750D03*
X271625000Y-175908750D03*
D11*
X273005000Y-173368750D03*
D14*
X261525000Y-178448750D03*
X275375000Y-175908750D03*
%TD*%
D20*
%TO.C,D_8*%
X276750000Y-166130000D03*
D21*
X276750000Y-168350000D03*
X276750000Y-171650000D03*
D22*
X276750000Y-173750000D03*
%TD*%
D11*
%TO.C,K_9*%
X281895000Y-175750000D03*
D12*
X283165000Y-178290000D03*
X284325000Y-180830000D03*
D13*
X286975000Y-175750000D03*
D12*
X289515000Y-180830000D03*
X290675000Y-178290000D03*
D11*
X292055000Y-175750000D03*
D14*
X280575000Y-180830000D03*
X294425000Y-178290000D03*
%TD*%
D20*
%TO.C,D_9*%
X296000000Y-168380000D03*
D21*
X296000000Y-170600000D03*
X296000000Y-173900000D03*
D22*
X296000000Y-176000000D03*
%TD*%
D11*
%TO.C,K_10*%
X186645000Y-178131250D03*
D12*
X187915000Y-180671250D03*
X189075000Y-183211250D03*
D13*
X191725000Y-178131250D03*
D12*
X194265000Y-183211250D03*
X195425000Y-180671250D03*
D11*
X196805000Y-178131250D03*
D14*
X185325000Y-183211250D03*
X199175000Y-180671250D03*
%TD*%
D20*
%TO.C,D_10*%
X200750000Y-170880000D03*
D21*
X200750000Y-173100000D03*
X200750000Y-176400000D03*
D22*
X200750000Y-178500000D03*
%TD*%
D11*
%TO.C,K_11*%
X205695000Y-178131250D03*
D12*
X206965000Y-180671250D03*
X208125000Y-183211250D03*
D13*
X210775000Y-178131250D03*
D12*
X213315000Y-183211250D03*
X214475000Y-180671250D03*
D11*
X215855000Y-178131250D03*
D14*
X204375000Y-183211250D03*
X218225000Y-180671250D03*
%TD*%
D20*
%TO.C,D_11*%
X219750000Y-170880000D03*
D21*
X219750000Y-173100000D03*
X219750000Y-176400000D03*
D22*
X219750000Y-178500000D03*
%TD*%
D11*
%TO.C,K_12*%
X243795000Y-190037500D03*
D12*
X245065000Y-192577500D03*
X246225000Y-195117500D03*
D13*
X248875000Y-190037500D03*
D12*
X251415000Y-195117500D03*
X252575000Y-192577500D03*
D11*
X253955000Y-190037500D03*
D14*
X242475000Y-195117500D03*
X256325000Y-192577500D03*
%TD*%
D20*
%TO.C,D_12*%
X257750000Y-182630000D03*
D21*
X257750000Y-184850000D03*
X257750000Y-188150000D03*
D22*
X257750000Y-190250000D03*
%TD*%
D11*
%TO.C,K_13*%
X224745000Y-192418750D03*
D12*
X226015000Y-194958750D03*
X227175000Y-197498750D03*
D13*
X229825000Y-192418750D03*
D12*
X232365000Y-197498750D03*
X233525000Y-194958750D03*
D11*
X234905000Y-192418750D03*
D14*
X223425000Y-197498750D03*
X237275000Y-194958750D03*
%TD*%
D20*
%TO.C,D_13*%
X238750000Y-185130000D03*
D21*
X238750000Y-187350000D03*
X238750000Y-190650000D03*
D22*
X238750000Y-192750000D03*
%TD*%
D11*
%TO.C,K_14*%
X262845000Y-192418750D03*
D12*
X264115000Y-194958750D03*
X265275000Y-197498750D03*
D13*
X267925000Y-192418750D03*
D12*
X270465000Y-197498750D03*
X271625000Y-194958750D03*
D11*
X273005000Y-192418750D03*
D14*
X261525000Y-197498750D03*
X275375000Y-194958750D03*
%TD*%
D20*
%TO.C,D_14*%
X276750000Y-185130000D03*
D21*
X276750000Y-187350000D03*
X276750000Y-190650000D03*
D22*
X276750000Y-192750000D03*
%TD*%
D11*
%TO.C,K_15*%
X281895000Y-194800000D03*
D12*
X283165000Y-197340000D03*
X284325000Y-199880000D03*
D13*
X286975000Y-194800000D03*
D12*
X289515000Y-199880000D03*
X290675000Y-197340000D03*
D11*
X292055000Y-194800000D03*
D14*
X280575000Y-199880000D03*
X294425000Y-197340000D03*
%TD*%
D20*
%TO.C,D_15*%
X296000000Y-187380000D03*
D21*
X296000000Y-189600000D03*
X296000000Y-192900000D03*
D22*
X296000000Y-195000000D03*
%TD*%
D11*
%TO.C,K_16*%
X186645000Y-197181250D03*
D12*
X187915000Y-199721250D03*
X189075000Y-202261250D03*
D13*
X191725000Y-197181250D03*
D12*
X194265000Y-202261250D03*
X195425000Y-199721250D03*
D11*
X196805000Y-197181250D03*
D14*
X185325000Y-202261250D03*
X199175000Y-199721250D03*
%TD*%
D20*
%TO.C,D_16*%
X200500000Y-189880000D03*
D21*
X200500000Y-192100000D03*
X200500000Y-195400000D03*
D22*
X200500000Y-197500000D03*
%TD*%
D11*
%TO.C,K_17*%
X205695000Y-197181250D03*
D12*
X206965000Y-199721250D03*
X208125000Y-202261250D03*
D13*
X210775000Y-197181250D03*
D12*
X213315000Y-202261250D03*
X214475000Y-199721250D03*
D11*
X215855000Y-197181250D03*
D14*
X204375000Y-202261250D03*
X218225000Y-199721250D03*
%TD*%
D20*
%TO.C,D_17*%
X219500000Y-189880000D03*
D21*
X219500000Y-192100000D03*
X219500000Y-195400000D03*
D22*
X219500000Y-197500000D03*
%TD*%
D11*
%TO.C,K_18*%
X243795000Y-209087500D03*
D12*
X245065000Y-211627500D03*
X246225000Y-214167500D03*
D13*
X248875000Y-209087500D03*
D12*
X251415000Y-214167500D03*
X252575000Y-211627500D03*
D11*
X253955000Y-209087500D03*
D14*
X242475000Y-214167500D03*
X256325000Y-211627500D03*
%TD*%
D20*
%TO.C,D_18*%
X257750000Y-201630000D03*
D21*
X257750000Y-203850000D03*
X257750000Y-207150000D03*
D22*
X257750000Y-209250000D03*
%TD*%
D11*
%TO.C,K_19*%
X224745000Y-211468750D03*
D12*
X226015000Y-214008750D03*
X227175000Y-216548750D03*
D13*
X229825000Y-211468750D03*
D12*
X232365000Y-216548750D03*
X233525000Y-214008750D03*
D11*
X234905000Y-211468750D03*
D14*
X223425000Y-216548750D03*
X237275000Y-214008750D03*
%TD*%
D20*
%TO.C,D_19*%
X238500000Y-204130000D03*
D21*
X238500000Y-206350000D03*
X238500000Y-209650000D03*
D22*
X238500000Y-211750000D03*
%TD*%
D11*
%TO.C,K_20*%
X262845000Y-211468750D03*
D12*
X264115000Y-214008750D03*
X265275000Y-216548750D03*
D13*
X267925000Y-211468750D03*
D12*
X270465000Y-216548750D03*
X271625000Y-214008750D03*
D11*
X273005000Y-211468750D03*
D14*
X261525000Y-216548750D03*
X275375000Y-214008750D03*
%TD*%
D20*
%TO.C,D_20*%
X276750000Y-204130000D03*
D21*
X276750000Y-206350000D03*
X276750000Y-209650000D03*
D22*
X276750000Y-211750000D03*
%TD*%
D11*
%TO.C,K_21*%
X281895000Y-213850000D03*
D12*
X283165000Y-216390000D03*
X284325000Y-218930000D03*
D13*
X286975000Y-213850000D03*
D12*
X289515000Y-218930000D03*
X290675000Y-216390000D03*
D11*
X292055000Y-213850000D03*
D14*
X280575000Y-218930000D03*
X294425000Y-216390000D03*
%TD*%
D20*
%TO.C,D_21*%
X295750000Y-206380000D03*
D21*
X295750000Y-208600000D03*
X295750000Y-211900000D03*
D22*
X295750000Y-214000000D03*
%TD*%
D11*
%TO.C,K_22*%
X186645000Y-216231250D03*
D12*
X187915000Y-218771250D03*
X189075000Y-221311250D03*
D13*
X191725000Y-216231250D03*
D12*
X194265000Y-221311250D03*
X195425000Y-218771250D03*
D11*
X196805000Y-216231250D03*
D14*
X185325000Y-221311250D03*
X199175000Y-218771250D03*
%TD*%
D20*
%TO.C,D_22*%
X200500000Y-208880000D03*
D21*
X200500000Y-211100000D03*
X200500000Y-214400000D03*
D22*
X200500000Y-216500000D03*
%TD*%
D11*
%TO.C,K_23*%
X205695000Y-216231250D03*
D12*
X206965000Y-218771250D03*
X208125000Y-221311250D03*
D13*
X210775000Y-216231250D03*
D12*
X213315000Y-221311250D03*
X214475000Y-218771250D03*
D11*
X215855000Y-216231250D03*
D14*
X204375000Y-221311250D03*
X218225000Y-218771250D03*
%TD*%
D20*
%TO.C,D_23*%
X219500000Y-208880000D03*
D21*
X219500000Y-211100000D03*
X219500000Y-214400000D03*
D22*
X219500000Y-216500000D03*
%TD*%
D11*
%TO.C,K_24*%
X186645000Y-235281250D03*
D12*
X187915000Y-237821250D03*
X189075000Y-240361250D03*
D13*
X191725000Y-235281250D03*
D12*
X194265000Y-240361250D03*
X195425000Y-237821250D03*
D11*
X196805000Y-235281250D03*
D14*
X185325000Y-240361250D03*
X199175000Y-237821250D03*
%TD*%
D20*
%TO.C,D_24*%
X200500000Y-227880000D03*
D21*
X200500000Y-230100000D03*
X200500000Y-233400000D03*
D22*
X200500000Y-235500000D03*
%TD*%
D11*
%TO.C,K_25*%
X205695000Y-235281250D03*
D12*
X206965000Y-237821250D03*
X208125000Y-240361250D03*
D13*
X210775000Y-235281250D03*
D12*
X213315000Y-240361250D03*
X214475000Y-237821250D03*
D11*
X215855000Y-235281250D03*
D14*
X204375000Y-240361250D03*
X218225000Y-237821250D03*
%TD*%
D20*
%TO.C,D_25*%
X219500000Y-227880000D03*
D21*
X219500000Y-230100000D03*
X219500000Y-233400000D03*
D22*
X219500000Y-235500000D03*
%TD*%
D11*
%TO.C,K_26*%
X229507500Y-235281250D03*
D12*
X230777500Y-237821250D03*
X231937500Y-240361250D03*
D13*
X234587500Y-235281250D03*
D12*
X237127500Y-240361250D03*
X238287500Y-237821250D03*
D11*
X239667500Y-235281250D03*
D14*
X228187500Y-240361250D03*
X242037500Y-237821250D03*
%TD*%
D20*
%TO.C,D_26*%
X243500000Y-227880000D03*
D21*
X243500000Y-230100000D03*
X243500000Y-233400000D03*
D22*
X243500000Y-235500000D03*
%TD*%
D11*
%TO.C,K_27*%
X250920000Y-235281250D03*
D12*
X252190000Y-237821250D03*
X253350000Y-240361250D03*
D13*
X256000000Y-235281250D03*
D12*
X258540000Y-240361250D03*
X259700000Y-237821250D03*
D11*
X261080000Y-235281250D03*
D14*
X249600000Y-240361250D03*
X263450000Y-237821250D03*
%TD*%
D20*
%TO.C,D_27*%
X264862500Y-227880000D03*
D21*
X264862500Y-230100000D03*
X264862500Y-233400000D03*
D22*
X264862500Y-235500000D03*
%TD*%
D11*
%TO.C,K_28*%
X272370000Y-235281250D03*
D12*
X273640000Y-237821250D03*
X274800000Y-240361250D03*
D13*
X277450000Y-235281250D03*
D12*
X279990000Y-240361250D03*
X281150000Y-237821250D03*
D11*
X282530000Y-235281250D03*
D14*
X271050000Y-240361250D03*
X284900000Y-237821250D03*
%TD*%
D20*
%TO.C,D_28*%
X286250000Y-227880000D03*
D21*
X286250000Y-230100000D03*
X286250000Y-233400000D03*
D22*
X286250000Y-235500000D03*
%TD*%
D11*
%TO.C,K_29*%
X304600591Y-221742399D03*
D12*
X304430443Y-224577104D03*
X304165033Y-227356808D03*
D13*
X309000000Y-224282399D03*
D12*
X308659705Y-229951808D03*
X310934294Y-228332104D03*
D11*
X313399409Y-226822399D03*
D23*
X300917437Y-225481808D03*
X314181889Y-230207104D03*
%TD*%
D24*
%TO.C,D_29*%
X305185000Y-213398482D03*
D25*
X304075000Y-215321058D03*
X302425000Y-218178942D03*
D26*
X301375000Y-219997595D03*
%TD*%
D11*
%TO.C,K_30*%
X321201182Y-231420000D03*
D12*
X321031034Y-234254705D03*
X320765624Y-237034409D03*
D13*
X325600591Y-233960000D03*
D12*
X325260296Y-239629409D03*
X327534885Y-238009705D03*
D11*
X330000000Y-236500000D03*
D23*
X317518028Y-235159409D03*
X330782480Y-239884705D03*
%TD*%
D24*
%TO.C,D_30*%
X321935000Y-222898482D03*
D25*
X320825000Y-224821058D03*
X319175000Y-227678942D03*
D26*
X318125000Y-229497595D03*
%TD*%
D11*
%TO.C,K_31*%
X295201182Y-237420000D03*
D12*
X295031034Y-240254705D03*
X294765624Y-243034409D03*
D13*
X299600591Y-239960000D03*
D12*
X299260296Y-245629409D03*
X301534885Y-244009705D03*
D11*
X304000000Y-242500000D03*
D23*
X291518028Y-241159409D03*
X304782480Y-245884705D03*
%TD*%
D24*
%TO.C,D_31*%
X295935000Y-228898482D03*
D25*
X294825000Y-230821058D03*
X293175000Y-233678942D03*
D26*
X292125000Y-235497595D03*
%TD*%
D11*
%TO.C,K_32*%
X312086875Y-247500000D03*
D12*
X311916727Y-250334705D03*
X311651317Y-253114409D03*
D13*
X316486284Y-250040000D03*
D12*
X316145989Y-255709409D03*
X318420578Y-254089705D03*
D11*
X320885693Y-252580000D03*
D23*
X308403721Y-251239409D03*
X321668173Y-255964705D03*
%TD*%
D24*
%TO.C,D_32*%
X312685000Y-239148482D03*
D25*
X311575000Y-241071058D03*
X309925000Y-243928942D03*
D26*
X308875000Y-245747595D03*
%TD*%
D27*
%TO.C,D25*%
X308808382Y-219062019D03*
X313441618Y-221737019D03*
X314191618Y-220437981D03*
D28*
X309558382Y-217762981D03*
%TD*%
D29*
%TO.C,D2*%
X265325000Y-150000000D03*
X270675000Y-150000000D03*
X270675000Y-148500000D03*
D30*
X265325000Y-148500000D03*
%TD*%
D27*
%TO.C,D27*%
X316558382Y-244812019D03*
X321191618Y-247487019D03*
X321941618Y-246187981D03*
D28*
X317308382Y-243512981D03*
%TD*%
D29*
%TO.C,D33*%
X189075000Y-231000000D03*
X194425000Y-231000000D03*
X194425000Y-229500000D03*
D30*
X189075000Y-229500000D03*
%TD*%
D27*
%TO.C,D28*%
X299558382Y-235062019D03*
X304191618Y-237737019D03*
X304941618Y-236437981D03*
D28*
X300308382Y-233762981D03*
%TD*%
D29*
%TO.C,D32*%
X208075000Y-231000000D03*
X213425000Y-231000000D03*
X213425000Y-229500000D03*
D30*
X208075000Y-229500000D03*
%TD*%
D29*
%TO.C,D31*%
X231825000Y-231000000D03*
X237175000Y-231000000D03*
X237175000Y-229500000D03*
D30*
X231825000Y-229500000D03*
%TD*%
D29*
%TO.C,D3*%
X246325000Y-147750000D03*
X251675000Y-147750000D03*
X251675000Y-146250000D03*
D30*
X246325000Y-146250000D03*
%TD*%
D29*
%TO.C,D12*%
X284325000Y-171500000D03*
X289675000Y-171500000D03*
X289675000Y-170000000D03*
D30*
X284325000Y-170000000D03*
%TD*%
D29*
%TO.C,D15*%
X246325000Y-185750000D03*
X251675000Y-185750000D03*
X251675000Y-184250000D03*
D30*
X246325000Y-184250000D03*
%TD*%
D29*
%TO.C,D1*%
X284325000Y-152500000D03*
X289675000Y-152500000D03*
X289675000Y-151000000D03*
D30*
X284325000Y-151000000D03*
%TD*%
D29*
%TO.C,D16*%
X227075000Y-188250000D03*
X232425000Y-188250000D03*
X232425000Y-186750000D03*
D30*
X227075000Y-186750000D03*
%TD*%
D29*
%TO.C,D18*%
X188825000Y-193000000D03*
X194175000Y-193000000D03*
X194175000Y-191500000D03*
D30*
X188825000Y-191500000D03*
%TD*%
D29*
%TO.C,D29*%
X275000000Y-231000000D03*
X280350000Y-231000000D03*
X280350000Y-229500000D03*
D30*
X275000000Y-229500000D03*
%TD*%
D29*
%TO.C,D13*%
X284325000Y-190500000D03*
X289675000Y-190500000D03*
X289675000Y-189000000D03*
D30*
X284325000Y-189000000D03*
%TD*%
D29*
%TO.C,D6*%
X189325000Y-154750000D03*
X194675000Y-154750000D03*
X194675000Y-153250000D03*
D30*
X189325000Y-153250000D03*
%TD*%
D29*
%TO.C,D21*%
X227075000Y-207250000D03*
X232425000Y-207250000D03*
X232425000Y-205750000D03*
D30*
X227075000Y-205750000D03*
%TD*%
D29*
%TO.C,D4*%
X227325000Y-150000000D03*
X232675000Y-150000000D03*
X232675000Y-148500000D03*
D30*
X227325000Y-148500000D03*
%TD*%
D27*
%TO.C,D26*%
X325558382Y-228812019D03*
X330191618Y-231487019D03*
X330941618Y-230187981D03*
D28*
X326308382Y-227512981D03*
%TD*%
D29*
%TO.C,D20*%
X208075000Y-212000000D03*
X213425000Y-212000000D03*
X213425000Y-210500000D03*
D30*
X208075000Y-210500000D03*
%TD*%
D29*
%TO.C,D17*%
X208075000Y-193000000D03*
X213425000Y-193000000D03*
X213425000Y-191500000D03*
D30*
X208075000Y-191500000D03*
%TD*%
D29*
%TO.C,D5*%
X208325000Y-154750000D03*
X213675000Y-154750000D03*
X213675000Y-153250000D03*
D30*
X208325000Y-153250000D03*
%TD*%
D29*
%TO.C,D11*%
X265325000Y-169000000D03*
X270675000Y-169000000D03*
X270675000Y-167500000D03*
D30*
X265325000Y-167500000D03*
%TD*%
D29*
%TO.C,D30*%
X253325000Y-231000000D03*
X258675000Y-231000000D03*
X258675000Y-229500000D03*
D30*
X253325000Y-229500000D03*
%TD*%
D29*
%TO.C,D8*%
X208325000Y-173750000D03*
X213675000Y-173750000D03*
X213675000Y-172250000D03*
D30*
X208325000Y-172250000D03*
%TD*%
D29*
%TO.C,D7*%
X189075000Y-173750000D03*
X194425000Y-173750000D03*
X194425000Y-172250000D03*
D30*
X189075000Y-172250000D03*
%TD*%
D29*
%TO.C,D10*%
X246325000Y-166750000D03*
X251675000Y-166750000D03*
X251675000Y-165250000D03*
D30*
X246325000Y-165250000D03*
%TD*%
D29*
%TO.C,D22*%
X246325000Y-204750000D03*
X251675000Y-204750000D03*
X251675000Y-203250000D03*
D30*
X246325000Y-203250000D03*
%TD*%
D29*
%TO.C,D14*%
X265325000Y-188250000D03*
X270675000Y-188250000D03*
X270675000Y-186750000D03*
D30*
X265325000Y-186750000D03*
%TD*%
D29*
%TO.C,D9*%
X227325000Y-169000000D03*
X232675000Y-169000000D03*
X232675000Y-167500000D03*
D30*
X227325000Y-167500000D03*
%TD*%
D29*
%TO.C,D24*%
X284325000Y-209500000D03*
X289675000Y-209500000D03*
X289675000Y-208000000D03*
D30*
X284325000Y-208000000D03*
%TD*%
D29*
%TO.C,D19*%
X189000000Y-212000000D03*
X194350000Y-212000000D03*
X194350000Y-210500000D03*
D30*
X189000000Y-210500000D03*
%TD*%
D29*
%TO.C,D23*%
X265075000Y-207250000D03*
X270425000Y-207250000D03*
X270425000Y-205750000D03*
D30*
X265075000Y-205750000D03*
%TD*%
M02*
