M48
; DRILL file {KiCad 9.0.0} date 2025-08-26T18:36:53+0200
; FORMAT={-:-/ absolute / inch / decimal}
; #@! TF.CreationDate,2025-08-26T18:36:53+02:00
; #@! TF.GenerationSoftware,Kicad,Pcbnew,9.0.0
; #@! TF.FileFunction,Plated,1,2,PTH
FMAT,2
INCH
; #@! TA.AperFunction,Plated,PTH,ViaDrill
T1C0.0157
; #@! TA.AperFunction,Plated,PTH,ComponentDrill
T2C0.0300
; #@! TA.AperFunction,Plated,PTH,ComponentDrill
T3C0.0315
; #@! TA.AperFunction,Plated,PTH,ComponentDrill
T4C0.0394
; #@! TA.AperFunction,Plated,PTH,ComponentDrill
T5C0.0866
%
G90
G05
T1
X7.126Y-6.3608
X7.1358Y-6.8373
X7.1358Y-7.4508
X7.1358Y-8.2579
X7.1358Y-8.7139
X7.1358Y-9.1831
X7.1752Y-6.1614
X7.2254Y-7.6969
X7.2343Y-6.1516
X7.2343Y-6.5945
X7.2343Y-8.1299
X7.2539Y-7.5984
X7.2539Y-8.2874
X7.2677Y-6.7126
X7.3248Y-6.0925
X7.3327Y-6.1516
X7.3327Y-7.5984
X7.3425Y-7.6476
X7.3425Y-8.3858
X7.4508Y-7.6388
X7.4705Y-6.1412
X7.5591Y-7.3819
X7.5591Y-7.4902
X7.5787Y-6.7224
X7.5787Y-9.6949
X7.5886Y-5.9144
X7.5886Y-5.9744
X7.5886Y-8.9862
X7.5984Y-5.7972
X7.5984Y-7.4606
X7.6083Y-6.6831
X7.6083Y-8.2283
X7.6181Y-8.1791
X7.628Y-8.9567
X7.6378Y-8.3912
X7.6476Y-6.8898
X7.7264Y-6.7323
X7.7264Y-6.8406
X7.7264Y-7.2933
X7.7264Y-7.628
X7.7264Y-8.0512
X7.7264Y-8.7992
X7.7264Y-9.5472
X7.7362Y-6.1319
X7.7362Y-7.5591
X7.7362Y-8.3465
X7.7362Y-9.1339
X7.7461Y-8.1496
X7.7559Y-6.5453
X7.7756Y-5.8858
X7.7756Y-6.0236
X7.7854Y-9.0551
X7.8051Y-7.628
X7.815Y-9.1339
X7.8346Y-6.7323
X7.8346Y-6.8406
X7.8937Y-6.063
X7.8937Y-6.2008
X7.8937Y-7.5689
X7.8937Y-7.6417
X7.8937Y-7.6929
X7.8937Y-8.311
X7.8937Y-8.4409
X7.8937Y-9.0591
X7.8937Y-9.189
X7.9035Y-6.6142
X7.9035Y-6.815
X7.9035Y-6.9449
X7.9232Y-7.2146
X7.9429Y-9.1634
X7.9724Y-5.8858
X7.9724Y-6.0236
X7.9724Y-6.9193
X7.9724Y-6.998
X7.9724Y-7.5689
X7.9872Y-6.1663
X8.002Y-8.4154
X8.0315Y-6.2106
X8.0315Y-6.6437
X8.0315Y-6.9587
X8.0315Y-7.3524
X8.0315Y-7.7165
X8.0315Y-8.1004
X8.0315Y-8.4646
X8.0315Y-8.9665
X8.0315Y-9.2126
X8.0709Y-6.8898
X8.0906Y-6.1319
X8.0906Y-7.628
X8.0906Y-9.0551
X8.0906Y-9.1339
X8.1102Y-8.3465
X8.1201Y-8.2874
X8.1299Y-9.6949
X8.1496Y-6.7815
X8.1988Y-7.6388
X8.2185Y-5.8858
X8.2185Y-6.1412
X8.3169Y-6.6142
X8.3268Y-5.9144
X8.3366Y-7.4409
X8.3366Y-7.4803
X8.3366Y-8.1791
X8.3366Y-8.2283
X8.3443Y-5.9776
X8.3465Y-6.7224
X8.3563Y-6.6831
X8.3563Y-8.9862
X8.376Y-8.9469
X8.3858Y-9.1343
X8.3957Y-6.8898
X8.3957Y-8.3862
X8.4449Y-7.4114
X8.4547Y-7.2933
X8.4646Y-8.7992
X8.4646Y-9.0945
X8.4646Y-9.5571
X8.4744Y-8.2382
X8.4744Y-8.3465
X8.4843Y-6.752
X8.4843Y-6.8406
X8.4843Y-8.0512
X8.5039Y-7.5295
X8.5039Y-7.5886
X8.5236Y-6.5453
X8.5335Y-6.0925
X8.5433Y-9.1339
X8.5531Y-7.6476
X8.563Y-5.7874
X8.563Y-6.752
X8.563Y-6.8406
X8.563Y-8.2382
X8.563Y-8.3465
X8.5925Y-6.6043
X8.6319Y-7.3819
X8.6417Y-7.563
X8.6417Y-7.6929
X8.6417Y-8.311
X8.6417Y-8.4409
X8.6417Y-9.0591
X8.6417Y-9.189
X8.6516Y-6.063
X8.6516Y-6.1969
X8.6516Y-6.815
X8.6516Y-6.9449
X8.6811Y-9.6949
X8.7008Y-9.1634
X8.7106Y-8.1594
X8.7205Y-6.8504
X8.7205Y-7.4409
X8.7205Y-8.3465
X8.7303Y-6.6043
X8.7598Y-9.0551
X8.7598Y-9.1339
X8.7697Y-7.1752
X8.7697Y-7.5295
X8.7697Y-7.9035
X8.7697Y-8.2874
X8.7702Y-6.034
X8.7795Y-6.3976
X8.7795Y-6.7618
X8.7795Y-9.3602
X8.8287Y-7.4409
X8.8287Y-8.0118
X8.8386Y-5.8465
X8.8386Y-6.5945
X8.8386Y-6.6732
X8.8484Y-5.935
X8.8484Y-8.1693
X8.8583Y-8.1004
X8.8976Y-9.0551
X8.8976Y-9.1339
X8.9272Y-5.6309
X8.9272Y-8.2776
X8.9469Y-7.4518
X8.9469Y-8.9862
X8.9469Y-9.2028
X8.9567Y-5.9453
X8.9961Y-5.689
X9.0059Y-8.7402
X9.0256Y-9.0551
X9.0256Y-9.1339
X9.0551Y-7.1949
X9.065Y-6.437
X9.0748Y-5.7874
X9.0846Y-7.9921
X9.0846Y-8.0413
X9.0943Y-6.4764
X9.0945Y-5.748
X9.0945Y-6.5256
X9.1043Y-7.2933
X9.1339Y-7.2441
X9.1339Y-8.1992
X9.1437Y-6.7028
X9.1831Y-5.689
X9.2224Y-6.3583
X9.2224Y-8.0315
X9.2224Y-8.1594
X9.2224Y-8.6024
X9.2323Y-5.9449
X9.2323Y-6.5157
X9.2323Y-6.6535
X9.2323Y-7.1063
X9.2323Y-9.6949
X9.2421Y-7.4114
X9.2421Y-7.8642
X9.2421Y-7.9331
X9.252Y-5.4331
X9.2618Y-8.9764
X9.2913Y-8.9469
X9.3012Y-7.4114
X9.311Y-5.8071
X9.311Y-5.8858
X9.311Y-7.3031
X9.3209Y-8.0315
X9.3209Y-8.1594
X9.3209Y-9.1343
X9.3307Y-6.5157
X9.3307Y-6.6535
X9.3602Y-8.7402
X9.3898Y-8.124
X9.3898Y-8.2539
X9.3996Y-5.689
X9.3996Y-5.8799
X9.3996Y-6.0098
X9.3996Y-6.6181
X9.3996Y-6.748
X9.3996Y-7.376
X9.3996Y-7.5059
X9.4094Y-9.1142
X9.4094Y-9.5571
X9.439Y-7.4508
X9.4488Y-5.9744
X9.4488Y-8.2185
X9.4587Y-7.3819
X9.4783Y-5.8071
X9.4783Y-7.2835
X9.498Y-6.6339
X9.5177Y-7.8051
X9.5177Y-8.189
X9.527Y-5.9443
X9.5276Y-6.3091
X9.5276Y-6.6831
X9.5276Y-7.0965
X9.5276Y-7.4311
X9.5669Y-6.6043
X9.5866Y-7.2835
X9.5866Y-9.0591
X9.5866Y-9.189
X9.5965Y-5.8366
X9.5965Y-6.5059
X9.5974Y-5.6486
X9.6063Y-8.0906
X9.6194Y-5.4331
X9.626Y-8.002
X9.6457Y-9.1634
X9.6555Y-9.3602
X9.6654Y-7.4311
X9.6949Y-5.8567
X9.7047Y-7.3533
X9.7146Y-9.065
X9.7146Y-9.124
X9.7544Y-5.7092
X9.7835Y-9.6949
X9.8031Y-7.1063
X9.8031Y-8.9961
X9.8031Y-9.2126
X9.813Y-6.3386
X9.8228Y-6.4469
X9.8622Y-6.4173
X9.8622Y-7.2047
X9.872Y-7.9134
X9.872Y-7.9528
X9.8819Y-9.065
X9.8819Y-9.124
X9.9016Y-6.6047
X9.9016Y-7.1752
X9.9016Y-8.1099
X9.9353Y-5.7143
X9.9606Y-7.0177
X9.9606Y-8.5039
X9.9606Y-9.2224
X9.9705Y-5.8563
X9.9705Y-7.7657
X9.9803Y-6.2598
X9.9803Y-7.3425
X9.9803Y-7.9921
X9.9803Y-8.061
X9.9869Y-5.4331
X10.0Y-7.8445
X10.0295Y-8.061
X10.0492Y-7.2638
X10.0591Y-7.3425
X10.0591Y-8.9272
X10.1181Y-8.7303
X10.1181Y-8.9764
X10.1476Y-5.7776
X10.1476Y-5.9114
X10.1476Y-6.3386
X10.1476Y-6.5295
X10.1476Y-6.6594
X10.1476Y-7.2776
X10.1476Y-7.3425
X10.1476Y-7.4075
X10.1476Y-8.0256
X10.1476Y-8.1555
X10.1673Y-9.1343
X10.1969Y-6.624
X10.2165Y-5.876
X10.2264Y-6.5354
X10.2362Y-7.2933
X10.2362Y-8.1299
X10.2461Y-7.3917
X10.2559Y-6.0138
X10.2559Y-9.1142
X10.2657Y-6.3878
X10.2657Y-6.7815
X10.2756Y-7.1161
X10.2756Y-7.5295
X10.2756Y-7.8937
X10.2756Y-8.2776
X10.315Y-9.0453
X10.3248Y-5.9154
X10.3248Y-6.6929
X10.3346Y-9.6949
X10.3445Y-8.1791
X10.3543Y-5.4331
X10.3543Y-7.4114
X10.3543Y-8.1004
X10.3839Y-6.5945
X10.3844Y-5.846
X10.4134Y-6.437
X10.4232Y-9.1339
X10.4277Y-9.0591
X10.4277Y-9.189
X10.4331Y-8.7303
X10.4429Y-5.9453
X10.4429Y-9.5955
X10.4528Y-7.4512
X10.4828Y-6.5359
X10.4921Y-5.6683
X10.502Y-5.7874
X10.502Y-9.3602
X10.5413Y-9.0354
X10.5413Y-9.1339
X10.5512Y-7.1949
X10.5906Y-6.4862
X10.6004Y-8.0512
X10.6102Y-7.3031
X10.6152Y-7.997
X10.6299Y-6.7028
X10.6299Y-8.1992
X10.6496Y-7.2736
X10.6641Y-5.7812
X10.6693Y-8.2776
X10.6988Y-9.0354
X10.6988Y-9.1339
X10.7185Y-5.9449
X10.7185Y-7.1063
X10.7185Y-7.4409
X10.7283Y-7.874
X10.7283Y-8.6024
X10.7382Y-5.7185
X10.748Y-6.3484
X10.748Y-7.3622
X10.748Y-7.9429
X10.748Y-8.7303
X10.7579Y-9.0354
X10.7776Y-6.437
X10.8366Y-9.1343
X10.8465Y-5.7185
X10.8858Y-9.6949
X10.8957Y-5.8799
X10.8957Y-6.0138
X10.8957Y-6.624
X10.8957Y-6.7579
X10.8957Y-7.3819
X10.8957Y-7.4508
X10.8957Y-7.5059
X10.8957Y-8.124
X10.8957Y-8.2539
X10.8957Y-8.9272
X10.9252Y-9.3898
X10.9252Y-9.5079
X10.9547Y-5.9843
X10.9646Y-6.0925
X10.9646Y-6.7067
X10.9646Y-8.2234
X10.9798Y-5.6343
X10.9843Y-8.9862
X11.0138Y-6.4469
X11.0138Y-6.8701
X11.0138Y-7.2343
X11.0138Y-7.628
X11.0138Y-7.9921
X11.0138Y-8.3593
X11.0236Y-5.8268
X11.0236Y-6.122
X11.0433Y-9.2421
X11.063Y-6.5551
X11.063Y-6.7815
X11.0827Y-7.5098
X11.0925Y-5.9055
X11.0925Y-6.0039
X11.0925Y-8.248
X11.1122Y-9.065
X11.1122Y-9.124
X11.122Y-6.6929
X11.122Y-7.4016
X11.122Y-8.189
X11.1319Y-5.6398
X11.1909Y-7.5398
X11.2008Y-6.0437
X11.2008Y-9.065
X11.2008Y-9.1142
X11.2008Y-9.2323
X11.2008Y-9.2815
X11.2254Y-5.8671
X11.2303Y-6.5846
X11.2303Y-6.6339
X11.2431Y-7.3454
X11.2697Y-9.0591
X11.2697Y-9.189
X11.2992Y-7.2933
X11.3091Y-9.1437
X11.3287Y-8.1398
X11.3386Y-7.3819
X11.3386Y-9.0256
X11.3386Y-9.5669
X11.3386Y-9.6457
X11.3583Y-5.8957
X11.3583Y-8.0906
X11.3681Y-6.5354
X11.3927Y-6.7917
X11.4075Y-8.2878
X11.4075Y-8.7697
X11.4075Y-8.9272
X11.4173Y-9.6161
X11.4513Y-9.0605
X11.4567Y-7.2047
X11.4567Y-7.9528
X11.4567Y-8.0413
X11.4862Y-6.4469
X11.4862Y-6.5354
X11.4862Y-8.2874
X11.4961Y-7.5098
X11.498Y-6.0217
X11.5059Y-9.1535
X11.5157Y-8.2087
X11.5423Y-9.2
X11.5453Y-6.6929
X11.5453Y-6.7815
X11.5453Y-8.6931
X11.5551Y-7.4902
X11.565Y-7.3819
X11.6073Y-9.0874
X11.6437Y-5.9685
X11.6437Y-6.0984
X11.6437Y-8.2126
X11.6437Y-8.3425
X11.6535Y-6.7126
X11.6535Y-6.8504
X11.6535Y-7.4646
X11.6535Y-7.5945
X11.6634Y-7.874
X11.6634Y-7.9724
X11.6831Y-8.937
X11.6875Y-8.7249
X11.6929Y-9.2421
X11.7126Y-8.2087
X11.7126Y-8.4843
X11.7323Y-8.9272
X11.7323Y-9.1535
X11.752Y-6.0531
X11.752Y-8.6024
X11.7815Y-8.8189
X11.811Y-5.7283
X11.8209Y-9.0157
X11.8307Y-5.9154
X11.8307Y-8.9665
X11.8504Y-5.8268
X11.8504Y-8.5728
X11.8602Y-9.1535
X11.8898Y-7.2244
X11.8898Y-7.4705
X11.8898Y-7.7657
X11.8898Y-7.9626
X11.8898Y-8.1594
X11.8898Y-8.3563
X11.9065Y-8.5897
X11.939Y-8.5335
X11.9587Y-7.2736
X11.9587Y-8.1594
X11.9587Y-9.3996
X11.9685Y-5.8563
X11.9685Y-9.2126
X11.9715Y-8.4772
X11.9783Y-5.7382
X11.9783Y-5.9449
X11.998Y-6.3287
X11.998Y-7.5098
X12.0056Y-9.1732
X12.0079Y-6.5945
X12.0079Y-9.8622
X12.0177Y-5.7874
X12.0276Y-7.1555
X12.0571Y-8.6024
X12.0669Y-7.0571
X12.0669Y-9.4094
X12.0768Y-8.2972
X12.0768Y-8.7303
X12.0866Y-7.6673
X12.0965Y-8.9469
X12.1358Y-9.1929
X12.185Y-5.748
X12.185Y-7.6673
X12.2018Y-9.6035
X12.2244Y-9.3701
X12.2343Y-9.2028
X12.2441Y-6.0827
X12.2441Y-7.0571
X12.2667Y-9.491
X12.2736Y-6.4469
X12.2835Y-7.6673
X12.3031Y-6.0728
X12.3031Y-8.8583
X12.313Y-8.7697
X12.3228Y-5.935
X12.3275Y-8.5977
X12.3327Y-9.5276
X12.3719Y-8.5433
X12.3819Y-7.6673
X12.3917Y-6.4469
X12.3917Y-9.6457
X12.4016Y-7.0571
X12.4311Y-9.4783
X12.4481Y-8.7921
X12.4508Y-6.0827
X12.4508Y-8.6713
X12.4508Y-8.937
X12.4803Y-7.6673
X12.4803Y-10.2165
X12.5098Y-7.1555
X12.5659Y-8.9637
X12.5689Y-8.7402
X12.5886Y-6.3583
X12.5886Y-7.0079
X12.5886Y-7.6673
X12.6083Y-6.5157
X12.6083Y-6.7913
X12.6083Y-9.7835
X12.628Y-8.5728
X12.6309Y-8.8512
X12.6378Y-9.6063
X12.6772Y-9.5669
X12.687Y-7.372
X12.687Y-7.6673
X12.6969Y-7.9626
X12.7165Y-9.813
X12.7264Y-9.1142
X12.7264Y-9.3602
X12.7362Y-5.7382
X12.7362Y-5.9154
X12.7362Y-8.9567
X12.7362Y-9.0059
X12.7461Y-7.1654
X12.7657Y-8.8386
X12.7854Y-9.7539
X12.7953Y-6.3976
X12.8051Y-9.9705
X12.8543Y-5.7382
X12.8642Y-9.5768
X12.874Y-9.8425
X12.9232Y-8.7303
X12.9528Y-9.2421
X12.9626Y-9.1437
X12.9921Y-8.9665
X13.0315Y-8.937
T2
X11.9079Y-5.8376
X11.9079Y-5.9376
X11.9079Y-6.0376
X11.9079Y-6.1376
X11.9079Y-6.2376
X11.9079Y-6.3376
X11.9079Y-6.4376
X11.9079Y-6.5376
X11.9079Y-6.6376
X11.9079Y-6.7376
X11.9079Y-6.8376
X11.9079Y-6.9376
X11.9098Y-5.7376
X12.0079Y-6.8376
X12.0079Y-6.9376
X12.0161Y-6.0057
X12.1079Y-6.9376
X12.2079Y-6.9376
X12.3079Y-6.9376
X12.3315Y-6.3691
X12.4079Y-6.9376
X12.4098Y-6.3691
X12.5079Y-5.7376
X12.5079Y-5.8376
X12.5079Y-5.9376
X12.5079Y-6.0376
X12.5079Y-6.1376
X12.5079Y-6.2376
X12.5079Y-6.3376
X12.5079Y-6.4376
X12.5079Y-6.5376
X12.5079Y-6.6376
X12.5079Y-6.7376
X12.5079Y-6.8376
X12.5079Y-6.9376
T3
X7.8937Y-5.9795
X7.8937Y-6.2795
X7.8937Y-7.4756
X7.8937Y-7.7756
X7.8937Y-8.2236
X7.8937Y-8.5236
X7.8937Y-8.9717
X7.8937Y-9.2717
X7.9035Y-6.7276
X7.9035Y-7.0276
X8.6417Y-7.4756
X8.6417Y-7.7756
X8.6417Y-8.2236
X8.6417Y-8.5236
X8.6417Y-8.9717
X8.6417Y-9.2717
X8.6516Y-5.9795
X8.6516Y-6.2795
X8.6516Y-6.7276
X8.6516Y-7.0276
X9.3898Y-8.0366
X9.3898Y-8.3366
X9.3996Y-5.7925
X9.3996Y-6.0925
X9.3996Y-6.5307
X9.3996Y-6.8307
X9.3996Y-7.2886
X9.3996Y-7.5886
X9.5866Y-8.9717
X9.5866Y-9.2717
X10.1476Y-5.6941
X10.1476Y-5.9941
X10.1476Y-6.4421
X10.1476Y-6.7421
X10.1476Y-7.1902
X10.1476Y-7.4902
X10.1476Y-7.9382
X10.1476Y-8.2382
X10.4277Y-8.9717
X10.4277Y-9.2717
X10.8957Y-5.7925
X10.8957Y-6.0925
X10.8957Y-6.5406
X10.8957Y-6.8406
X10.8957Y-7.2886
X10.8957Y-7.5886
X10.8957Y-8.0366
X10.8957Y-8.3366
X11.2697Y-8.9717
X11.2697Y-9.2717
X11.501Y-9.2716
X11.6437Y-5.8811
X11.6437Y-6.1811
X11.6437Y-8.1252
X11.6437Y-8.4252
X11.651Y-9.0118
X11.6535Y-6.6291
X11.6535Y-6.9291
X11.6535Y-7.3772
X11.6535Y-7.6772
X11.8652Y-8.6613
X12.0152Y-8.4015
X12.1604Y-9.6751
X12.3104Y-9.4153
X12.5246Y-9.0353
X12.6746Y-8.7755
T4
X12.0343Y-7.2736
X12.0343Y-8.1004
X12.1343Y-7.2736
X12.1343Y-8.1004
X12.2343Y-7.2736
X12.2343Y-8.1004
X12.3343Y-7.2736
X12.3343Y-8.1004
X12.4343Y-7.2736
X12.4343Y-8.1004
X12.5343Y-7.2736
X12.5343Y-8.1004
X12.6343Y-7.2736
X12.6343Y-8.1004
T5
X7.185Y-5.8563
X7.185Y-9.6654
X9.7933Y-8.7598
X9.8031Y-5.4823
X11.2008Y-9.6654
X11.752Y-6.3287
X12.3327Y-8.3858
X12.5492Y-10.3445
X12.7461Y-6.8799
X13.3071Y-9.0059
T4
G00X12.6102Y-5.8568
M15
G01X12.6102Y-5.8883
M16
G05
G00X12.6102Y-5.9749
M15
G01X12.6102Y-6.0064
M16
G05
G00X12.6102Y-6.1324
M15
G01X12.6102Y-6.1639
M16
G05
G00X12.685Y-6.1757
M15
G01X12.685Y-6.2072
M16
G05
G00X12.7913Y-6.1757
M15
G01X12.7913Y-6.2072
M16
G05
G00X12.8661Y-5.8568
M15
G01X12.8661Y-5.8883
M16
G05
G00X12.8661Y-5.9749
M15
G01X12.8661Y-6.0064
M16
G05
G00X12.8661Y-6.1324
M15
G01X12.8661Y-6.1639
M16
G05
M30
