M48
; DRILL file {KiCad 9.0.0} date 2025-08-02T16:37:42+0200
; FORMAT={-:-/ absolute / metric / decimal}
; #@! TF.CreationDate,2025-08-02T16:37:42+02:00
; #@! TF.GenerationSoftware,Kicad,Pcbnew,9.0.0
; #@! TF.FileFunction,Plated,1,2,PTH
FMAT,2
METRIC
; #@! TA.AperFunction,Plated,PTH,ComponentDrill
T1C0.762
; #@! TA.AperFunction,Plated,PTH,ComponentDrill
T2C0.800
; #@! TA.AperFunction,Plated,PTH,ComponentDrill
T3C1.000
; #@! TA.AperFunction,Plated,PTH,ComponentDrill
T4C2.200
%
G90
G05
T1
X255.21Y-137.525
X255.21Y-140.065
X255.21Y-142.605
X255.21Y-145.145
X255.21Y-147.685
X255.21Y-150.225
X255.21Y-152.765
X255.21Y-155.305
X255.21Y-157.845
X255.21Y-160.385
X255.21Y-162.925
X255.21Y-165.465
X255.26Y-134.985
X257.75Y-162.925
X257.75Y-165.465
X257.96Y-141.795
X260.29Y-165.465
X262.83Y-165.465
X265.37Y-165.465
X265.97Y-151.025
X267.91Y-165.465
X267.96Y-151.025
X270.45Y-134.985
X270.45Y-137.525
X270.45Y-140.065
X270.45Y-142.605
X270.45Y-145.145
X270.45Y-147.685
X270.45Y-150.225
X270.45Y-152.765
X270.45Y-155.305
X270.45Y-157.845
X270.45Y-160.385
X270.45Y-162.925
X270.45Y-165.465
T2
X199.25Y-137.19
X199.25Y-144.81
X199.25Y-156.19
X199.25Y-163.81
X199.25Y-175.19
X199.25Y-182.81
X217.75Y-175.19
X217.75Y-182.81
X218.5Y-137.19
X218.5Y-144.81
X218.5Y-156.25
X218.5Y-163.87
X237.25Y-175.19
X237.25Y-182.81
X237.5Y-137.19
X237.5Y-144.81
X237.5Y-156.25
X237.5Y-163.87
T3
X258.0Y-176.63
X258.0Y-179.17
X258.0Y-181.71
X258.0Y-184.25
X258.0Y-186.79
T4
X184.8Y-132.75
X184.8Y-193.9
X239.5Y-132.75
X241.6Y-193.9
X258.0Y-170.5
X258.0Y-193.9
X274.75Y-132.75
X275.0Y-193.9
M30
