M48
; DRILL file {KiCad 9.0.0} date 2025-08-02T16:37:42+0200
; FORMAT={-:-/ absolute / metric / decimal}
; #@! TF.CreationDate,2025-08-02T16:37:42+02:00
; #@! TF.GenerationSoftware,Kicad,Pcbnew,9.0.0
; #@! TF.FileFunction,NonPlated,1,2,NPTH
FMAT,2
METRIC
; #@! TA.AperFunction,NonPlated,NPTH,ComponentDrill
T1C1.702
; #@! TA.AperFunction,NonPlated,NPTH,ComponentDrill
T2C3.000
; #@! TA.AperFunction,NonPlated,NPTH,ComponentDrill
T3C3.988
%
G90
G05
T1
X185.12Y-144.95
X185.12Y-164.0
X185.17Y-183.0
X195.28Y-144.95
X195.28Y-164.0
X195.33Y-183.0
X204.17Y-144.95
X204.17Y-164.0
X204.17Y-183.0
X214.33Y-144.95
X214.33Y-164.0
X214.33Y-183.0
X223.17Y-145.0
X223.17Y-164.0
X223.17Y-183.0
X233.33Y-145.0
X233.33Y-164.0
X233.33Y-183.0
T2
X187.66Y-150.03
X187.66Y-169.08
X187.71Y-188.08
X194.01Y-147.49
X194.01Y-166.54
X194.06Y-185.54
X206.71Y-150.03
X206.71Y-169.08
X206.71Y-188.08
X213.06Y-147.49
X213.06Y-166.54
X213.06Y-185.54
X225.71Y-150.08
X225.71Y-169.08
X225.71Y-188.08
X232.06Y-147.54
X232.06Y-166.54
X232.06Y-185.54
T3
X190.2Y-144.95
X190.2Y-164.0
X190.25Y-183.0
X209.25Y-144.95
X209.25Y-164.0
X209.25Y-183.0
X228.25Y-145.0
X228.25Y-164.0
X228.25Y-183.0
M30
